<svg xmlns="http://www.w3.org/2000/svg" xmlns:xlink="http://www.w3.org/1999/xlink" width="697.801" height="687" viewBox="0 0 697.801 687"><defs><style>.a{fill:none;}.b{fill:url(#a);}.c{clip-path:url(#b);}.aa,.ab,.ac,.ad,.ae,.af,.ag,.ah,.ai,.aj,.ak,.al,.am,.an,.ao,.ap,.aq,.ar,.as,.at,.au,.av,.aw,.ax,.ay,.az,.ba,.bb,.bc,.bd,.be,.bf,.bg,.bh,.bi,.bj,.bk,.bl,.bm,.bn,.bo,.bp,.bq,.br,.bs,.bt,.bu,.bv,.bw,.bx,.by,.bz,.ca,.cb,.cc,.cd,.ce,.cf,.cg,.ch,.ci,.cj,.ck,.cl,.cm,.cn,.co,.cp,.cq,.cr,.cs,.ct,.cu,.cv,.cw,.cx,.cy,.cz,.d,.da,.db,.dc,.dd,.de,.df,.dg,.dh,.di,.dj,.dk,.dl,.dm,.dn,.do,.dp,.dq,.dr,.ds,.dt,.du,.dv,.dw,.dx,.dy,.dz,.e,.ea,.eb,.ec,.ed,.ee,.ef,.eg,.eh,.ei,.ej,.ek,.el,.em,.en,.eo,.ep,.eq,.er,.es,.et,.eu,.ev,.ew,.ex,.ey,.f,.g,.h,.i,.j,.k,.l,.m,.n,.o,.p,.q,.r,.s,.t,.u,.v,.w,.x,.y,.z{mix-blend-mode:screen;}.aa,.ab,.ac,.ad,.ae,.af,.ag,.ah,.ai,.aj,.ak,.al,.am,.an,.ao,.ap,.aq,.ar,.as,.at,.au,.av,.aw,.ax,.ay,.az,.ba,.bb,.bc,.bd,.be,.bf,.bg,.bh,.bi,.bj,.bk,.bl,.bm,.bn,.bo,.bp,.bq,.br,.bs,.bt,.bu,.bv,.bw,.bx,.by,.bz,.ca,.cb,.cc,.cd,.ce,.cf,.cg,.ch,.ci,.cj,.ck,.cl,.cm,.cn,.co,.cp,.cq,.cr,.cs,.ct,.cu,.cv,.cw,.cx,.cy,.cz,.d,.da,.db,.dc,.dd,.de,.df,.dg,.dh,.di,.dj,.dk,.dl,.dm,.dn,.do,.dp,.dq,.dr,.ds,.dt,.du,.dv,.dw,.dx,.dy,.dz,.e,.ea,.eb,.ec,.ed,.ee,.ef,.eg,.eh,.ei,.ej,.ek,.el,.em,.en,.eo,.ep,.eq,.er,.es,.et,.eu,.ev,.ew,.ex,.ey,.ez,.f,.fa,.fb,.fd,.fe,.g,.h,.i,.j,.k,.l,.m,.n,.o,.p,.q,.r,.s,.t,.u,.v,.w,.x,.y,.z{isolation:isolate;}.d{fill:url(#c);}.e{fill:url(#d);}.f{fill:url(#e);}.g{fill:url(#f);}.h{fill:url(#g);}.i{fill:url(#h);}.j{fill:url(#i);}.k{fill:url(#j);}.l{fill:url(#k);}.m{fill:url(#l);}.n{fill:url(#m);}.o{fill:url(#n);}.p{fill:url(#o);}.q{fill:url(#p);}.r{fill:url(#q);}.s{fill:url(#r);}.t{fill:url(#s);}.u{fill:url(#t);}.v{fill:url(#u);}.w{fill:url(#v);}.x{fill:url(#w);}.y{fill:url(#x);}.z{fill:url(#y);}.aa{fill:url(#z);}.ab{fill:url(#aa);}.ac{fill:url(#ab);}.ad{fill:url(#ac);}.ae{fill:url(#ad);}.af{fill:url(#ae);}.ag{fill:url(#af);}.ah{fill:url(#ag);}.ai{fill:url(#ah);}.aj{fill:url(#ai);}.ak{fill:url(#aj);}.al{fill:url(#ak);}.am{fill:url(#al);}.an{fill:url(#am);}.ao{fill:url(#an);}.ap{fill:url(#ao);}.aq{fill:url(#ap);}.ar{fill:url(#aq);}.as{fill:url(#ar);}.at{fill:url(#as);}.au{fill:url(#at);}.av{fill:url(#au);}.aw{fill:url(#av);}.ax{fill:url(#aw);}.ay{fill:url(#ax);}.az{fill:url(#ay);}.ba{fill:url(#az);}.bb{fill:url(#ba);}.bc{fill:url(#bb);}.bd{fill:url(#bc);}.be{fill:url(#bd);}.bf{fill:url(#be);}.bg{fill:url(#bf);}.bh{fill:url(#bg);}.bi{fill:url(#bh);}.bj{fill:url(#bi);}.bk{fill:url(#bj);}.bl{fill:url(#bk);}.bm{fill:url(#bl);}.bn{fill:url(#bm);}.bo{fill:url(#bn);}.bp{fill:url(#bo);}.bq{fill:url(#bp);}.br{fill:url(#bq);}.bs{fill:url(#br);}.bt{fill:url(#bs);}.bu{fill:url(#bt);}.bv{fill:url(#bu);}.bw{fill:url(#bv);}.bx{fill:url(#bw);}.by{fill:url(#bx);}.bz{fill:url(#by);}.ca{fill:url(#bz);}.cb{fill:url(#ca);}.cc{fill:url(#cb);}.cd{fill:url(#cc);}.ce{fill:url(#cd);}.cf{fill:url(#ce);}.cg{fill:url(#cf);}.ch{fill:url(#cg);}.ci{fill:url(#ch);}.cj{fill:url(#ci);}.ck{fill:url(#cj);}.cl{fill:url(#ck);}.cm{fill:url(#cl);}.cn{fill:url(#cm);}.co{fill:url(#cn);}.cp{fill:url(#co);}.cq{fill:url(#cp);}.cr{fill:url(#cq);}.cs{fill:url(#cr);}.ct{fill:url(#cs);}.cu{fill:url(#ct);}.cv{fill:url(#cu);}.cw{fill:url(#cv);}.cx{fill:url(#cw);}.cy{fill:url(#cx);}.cz{fill:url(#cy);}.da{fill:url(#cz);}.db{fill:url(#da);}.dc{fill:url(#db);}.dd{fill:url(#dc);}.de{fill:url(#dd);}.df{fill:url(#de);}.dg{fill:url(#df);}.dh{fill:url(#dg);}.di{fill:url(#dh);}.dj{fill:url(#di);}.dk{fill:url(#dj);}.dl{fill:url(#dk);}.dm{fill:url(#dl);}.dn{fill:url(#dm);}.do{fill:url(#dn);}.dp{fill:url(#do);}.dq{fill:url(#dp);}.dr{fill:url(#dq);}.ds{fill:url(#dr);}.dt{fill:url(#ds);}.du{fill:url(#dt);}.dv{fill:url(#du);}.dw{fill:url(#dv);}.dx{fill:url(#dw);}.dy{fill:url(#dx);}.dz{fill:url(#dy);}.ea{fill:url(#dz);}.eb{fill:url(#ea);}.ec{fill:url(#eb);}.ed{fill:url(#ec);}.ee{fill:url(#ed);}.ef{fill:url(#ee);}.eg{fill:url(#ef);}.eh{fill:url(#eg);}.ei{fill:url(#eh);}.ej{fill:url(#ei);}.ek{fill:url(#ej);}.el{fill:url(#ek);}.em{fill:url(#el);}.en{fill:url(#em);}.eo{fill:url(#en);}.ep{fill:url(#eo);}.eq{fill:url(#ep);}.er{fill:url(#eq);}.es{fill:url(#er);}.et{fill:url(#es);}.eu{fill:url(#et);}.ev{fill:url(#eu);}.ew{fill:url(#ev);}.ex{fill:url(#ew);}.ey{fill:url(#ex);}.ez,.fa,.fb,.fd,.fe{mix-blend-mode:overlay;}.ez{fill:url(#ey);}.fa{opacity:0.5;fill:url(#ez);}.fb{opacity:0.6;fill:url(#fa);}.fc{fill:url(#fb);}.fd{fill:url(#fc);}.fe{fill:url(#fd);}</style><radialGradient id="a" cx="0.55" cy="0.634" r="0.777" gradientTransform="translate(-0.027) scale(1.053 1)" gradientUnits="objectBoundingBox"><stop offset="0" stop-color="#fea700"/><stop offset="0.638" stop-color="#ea4100"/><stop offset="0.785" stop-color="#c63800"/><stop offset="0.92" stop-color="#ab3200"/><stop offset="1" stop-color="#a23000"/></radialGradient><clipPath id="b"><path class="a" d="M748.5,693.918c-8.978,26.521-41.119,39.811-94.13,63.782S569.205,838.7,584.4,895.823s22.881,89.219,51.034,108.811,57.652,53.946,77.12,88.32,50.5,29.189,72.559,57.664,48.222,9.631,71.728,25.927c35.7,24.751,58.64-3.408,95.028,15.668s66.068,13.857,94.237,3.992,52.226-7.093,90.707,15.017,72.107,32.442,96.227,11.09c-20.541,10.548-62.825,8.356-98.271-26.864-28.829-28.645-10.741-66.485,5.773-100.427,17.721-36.422,5.406-56.973,11.345-77.607s6.325-35.985.389-51.5,17.7-57.387,6.05-89.848-6.173-60.437-19.578-91.214c-17.43-40.015-.825-60.743-30.69-94.926s-38.753-61.695-94.541-85.5S888.328,591.525,838.7,635.55,779.2,694.689,748.5,693.918Z" transform="translate(-580.624 -592.113)"/></clipPath><radialGradient id="c" cx="0.5" cy="0.5" r="0.5" gradientTransform="matrix(0.845, 0.535, -0.535, 0.845, -0.032, 8.431)" gradientUnits="objectBoundingBox"><stop offset="0" stop-color="#fff"/><stop offset="0.003" stop-color="#fefcfc"/><stop offset="0.086" stop-color="#febabc"/><stop offset="0.167" stop-color="#fe8186"/><stop offset="0.245" stop-color="#fe5359"/><stop offset="0.318" stop-color="#fe2f36"/><stop offset="0.387" stop-color="#fe151d"/><stop offset="0.449" stop-color="#fe050e"/><stop offset="0.497" stop-color="#fe0009"/><stop offset="0.881" stop-opacity="0"/></radialGradient><radialGradient id="d" cx="0.5" cy="0.5" r="0.5" gradientTransform="matrix(0.845, 0.535, -0.535, 0.845, -0.53, 4.587)" xlink:href="#c"/><radialGradient id="e" cx="0.5" cy="0.5" r="0.5" gradientTransform="matrix(-0.535, 0.845, -0.845, -0.535, -1.172, 24.319)" xlink:href="#c"/><radialGradient id="f" cx="0.5" cy="0.5" r="0.5" gradientTransform="matrix(-0.535, 0.845, -0.845, -0.535, 7.328, 9.24)" xlink:href="#c"/><radialGradient id="g" cx="0.5" cy="0.5" r="0.5" gradientTransform="matrix(-0.535, 0.845, -0.845, -0.535, -2.239, 5.657)" xlink:href="#c"/><radialGradient id="h" cx="0.5" cy="0.5" r="0.5" gradientTransform="matrix(-0.845, -0.535, 0.535, -0.845, -0.599, 4.349)" xlink:href="#c"/><radialGradient id="i" cx="0.5" cy="0.5" r="0.5" gradientTransform="matrix(-0.845, -0.535, 0.535, -0.845, 4.069, 18.322)" xlink:href="#c"/><radialGradient id="j" cx="0.5" cy="0.5" r="0.5" gradientTransform="matrix(-0.535, 0.845, -0.845, -0.535, 5.488, -13.683)" xlink:href="#c"/><radialGradient id="k" cx="0.5" cy="0.5" r="0.5" gradientTransform="matrix(-0.535, 0.845, -0.845, -0.535, 14.064, -17.745)" xlink:href="#c"/><radialGradient id="l" cx="0.5" cy="0.5" r="0.5" gradientTransform="matrix(-0.845, -0.535, 0.535, -0.845, 18.182, -126.118)" xlink:href="#c"/><radialGradient id="m" cx="0.5" cy="0.5" r="0.5" gradientTransform="matrix(-0.845, -0.535, 0.535, -0.845, 21.218, -75.392)" xlink:href="#c"/><radialGradient id="n" cx="0.5" cy="0.5" r="0.5" gradientTransform="matrix(-0.845, -0.535, 0.535, -0.845, 2.183, -45.582)" xlink:href="#c"/><radialGradient id="o" cx="0.5" cy="0.5" r="0.5" gradientTransform="matrix(0.535, -0.845, 0.845, 0.535, -33.028, -65.112)" xlink:href="#c"/><radialGradient id="p" cx="0.5" cy="0.5" r="0.5" gradientTransform="matrix(0.535, -0.845, 0.845, 0.535, -26.093, -40.651)" xlink:href="#c"/><radialGradient id="q" cx="0.5" cy="0.5" r="0.5" gradientTransform="matrix(0.845, 0.535, -0.535, 0.845, 3.048, 12.313)" xlink:href="#c"/><radialGradient id="r" cx="0.5" cy="0.5" r="0.5" gradientTransform="matrix(0.845, 0.535, -0.535, 0.845, 1.357, 6.939)" xlink:href="#c"/><radialGradient id="s" cx="0.5" cy="0.5" r="0.5" gradientTransform="matrix(-0.535, 0.845, -0.845, -0.535, 69.425, 45.499)" xlink:href="#c"/><radialGradient id="t" cx="0.5" cy="0.5" r="0.5" gradientTransform="matrix(-0.535, 0.845, -0.845, -0.535, 54.949, 23.527)" xlink:href="#c"/><radialGradient id="u" cx="0.5" cy="0.5" r="0.5" gradientTransform="translate(9.054 2.307) rotate(125.042)" xlink:href="#c"/><radialGradient id="v" cx="0.5" cy="0.5" r="0.5" gradientTransform="matrix(-0.845, -0.535, 0.535, -0.845, 76.876, 8.408)" xlink:href="#c"/><radialGradient id="w" cx="0.5" cy="0.5" r="0.5" gradientTransform="matrix(-0.845, -0.535, 0.535, -0.845, 60.808, 15.347)" xlink:href="#c"/><radialGradient id="x" cx="0.5" cy="0.5" r="0.5" gradientTransform="translate(54.391 25.331) rotate(-156.417)" xlink:href="#c"/><radialGradient id="y" cx="0.5" cy="0.5" r="0.5" gradientTransform="matrix(-0.535, 0.845, -0.845, -0.535, 42.999, -16.924)" xlink:href="#c"/><radialGradient id="z" cx="0.5" cy="0.5" r="0.5" gradientTransform="translate(107.617 -147.29) rotate(-147.629)" xlink:href="#c"/><radialGradient id="aa" cx="0.5" cy="0.5" r="0.5" gradientTransform="translate(81.542 -89.671) rotate(-147.629)" xlink:href="#c"/><radialGradient id="ab" cx="0.5" cy="0.5" r="0.5" gradientTransform="matrix(-0.845, -0.535, 0.535, -0.845, 31.914, -59.616)" xlink:href="#c"/><radialGradient id="ac" cx="0.5" cy="0.5" r="0.5" gradientTransform="matrix(0.535, -0.845, 0.845, 0.535, -25.725, -90.238)" xlink:href="#c"/><radialGradient id="ad" cx="0.5" cy="0.5" r="0.5" gradientTransform="matrix(0.535, -0.845, 0.845, 0.535, -19.753, -58.451)" xlink:href="#c"/><radialGradient id="ae" cx="0.5" cy="0.5" r="0.5" gradientTransform="matrix(0.535, -0.845, 0.845, 0.535, 10.415, -21.516)" xlink:href="#c"/><radialGradient id="af" cx="0.5" cy="0.5" r="0.5" gradientTransform="matrix(0.535, -0.845, 0.845, 0.535, 5.322, -11.655)" xlink:href="#c"/><radialGradient id="ag" cx="0.5" cy="0.5" r="0.5" gradientTransform="matrix(0.845, 0.535, -0.535, 0.845, -7.406, 17.792)" xlink:href="#c"/><radialGradient id="ah" cx="0.5" cy="0.5" r="0.5" gradientTransform="matrix(0.845, 0.535, -0.535, 0.845, -5.827, 11.024)" xlink:href="#c"/><radialGradient id="ai" cx="0.5" cy="0.5" r="0.5" gradientTransform="translate(-6.346 4.243) rotate(32.371)" xlink:href="#c"/><radialGradient id="aj" cx="0.5" cy="0.5" r="0.5" gradientTransform="translate(-3.696 1.933) rotate(35.466)" xlink:href="#c"/><radialGradient id="ak" cx="0.5" cy="0.5" r="0.5" gradientTransform="matrix(-0.535, 0.845, -0.845, -0.535, -32.188, 7.085)" xlink:href="#c"/><radialGradient id="al" cx="0.5" cy="0.5" r="0.5" gradientTransform="translate(-18.401 -5.432) rotate(122.371)" xlink:href="#c"/><radialGradient id="am" cx="0.5" cy="0.5" r="0.5" gradientTransform="translate(-4.443 0.74) rotate(32.371)" xlink:href="#c"/><radialGradient id="an" cx="0.5" cy="0.5" r="0.5" gradientTransform="matrix(0.845, 0.535, -0.535, 0.845, -3.607, -0.617)" xlink:href="#c"/><radialGradient id="ao" cx="0.5" cy="0.5" r="0.5" gradientTransform="matrix(-0.535, 0.845, -0.845, -0.535, -98.102, -40.66)" xlink:href="#c"/><radialGradient id="ap" cx="0.5" cy="0.5" r="0.5" gradientTransform="translate(-56.68 -33.72) rotate(122.371)" xlink:href="#c"/><radialGradient id="aq" cx="0.5" cy="0.5" r="0.5" gradientTransform="translate(-29.341 -18.215) rotate(122.371)" xlink:href="#c"/><radialGradient id="ar" cx="0.5" cy="0.5" r="0.5" gradientTransform="matrix(-0.845, -0.535, 0.535, -0.845, -108.844, -43.031)" xlink:href="#c"/><radialGradient id="as" cx="0.5" cy="0.5" r="0.5" gradientTransform="matrix(-0.845, -0.535, 0.535, -0.845, -64.463, -19.349)" xlink:href="#c"/><radialGradient id="at" cx="0.5" cy="0.5" r="0.5" gradientTransform="matrix(0.535, -0.845, 0.845, 0.535, 14.798, -39.899)" xlink:href="#c"/><radialGradient id="au" cx="0.5" cy="0.5" r="0.5" gradientTransform="matrix(0.716, 0.698, -0.698, 0.716, -8.327, 11.571)" xlink:href="#c"/><radialGradient id="av" cx="0.5" cy="0.5" r="0.5" gradientTransform="translate(-18.98 -41.228) rotate(85.273)" xlink:href="#c"/><radialGradient id="aw" cx="0.5" cy="0.5" r="0.5" gradientTransform="translate(-11.428 -34.077) rotate(85.273)" xlink:href="#c"/><radialGradient id="ax" cx="0.5" cy="0.5" r="0.5" gradientTransform="translate(1.897 -17.952) rotate(159.707)" xlink:href="#c"/><radialGradient id="ay" cx="0.5" cy="0.5" r="0.5" gradientTransform="matrix(-0.997, 0.082, -0.082, -0.997, -42.902, -190.312)" xlink:href="#c"/><radialGradient id="az" cx="0.5" cy="0.5" r="0.5" gradientTransform="matrix(-0.997, 0.082, -0.082, -0.997, -14.985, -125.749)" xlink:href="#c"/><radialGradient id="ba" cx="0.5" cy="0.5" r="0.5" gradientTransform="matrix(0.845, 0.535, -0.535, 0.845, -5.602, -3.363)" xlink:href="#c"/><radialGradient id="bb" cx="0.5" cy="0.5" r="0.5" gradientTransform="matrix(0.845, 0.535, -0.535, 0.845, -4.47, -3.156)" xlink:href="#c"/><radialGradient id="bc" cx="0.5" cy="0.5" r="0.5" gradientTransform="matrix(-0.535, 0.845, -0.845, -0.535, -110.691, -125.571)" xlink:href="#c"/><radialGradient id="bd" cx="0.5" cy="0.5" r="0.5" gradientTransform="translate(-73.492 -96.267) rotate(122.371)" xlink:href="#c"/><radialGradient id="be" cx="0.5" cy="0.5" r="0.5" gradientTransform="translate(-39.664 -52.178) rotate(122.371)" xlink:href="#c"/><radialGradient id="bf" cx="0.5" cy="0.5" r="0.5" gradientTransform="matrix(-0.845, -0.535, 0.535, -0.845, -162.281, -163.276)" xlink:href="#c"/><radialGradient id="bg" cx="0.5" cy="0.5" r="0.5" gradientTransform="matrix(0.535, -0.845, 0.845, 0.535, 23.835, -11.845)" xlink:href="#c"/><radialGradient id="bh" cx="0.5" cy="0.5" r="0.5" gradientTransform="matrix(0.845, 0.535, -0.535, 0.845, 6.098, 31.054)" xlink:href="#c"/><radialGradient id="bi" cx="0.5" cy="0.5" r="0.5" gradientTransform="matrix(0.845, 0.535, -0.535, 0.845, 3.489, 20.102)" xlink:href="#c"/><radialGradient id="bj" cx="0.5" cy="0.5" r="0.5" gradientTransform="matrix(0.845, 0.535, -0.535, 0.845, -1.815, 3.82)" xlink:href="#c"/><radialGradient id="bk" cx="0.5" cy="0.5" r="0.5" gradientTransform="matrix(-0.535, 0.845, -0.845, -0.535, 120.598, 70.388)" xlink:href="#c"/><radialGradient id="bl" cx="0.5" cy="0.5" r="0.5" gradientTransform="translate(79.534 34.018) rotate(122.371)" xlink:href="#c"/><radialGradient id="bm" cx="0.5" cy="0.5" r="0.5" gradientTransform="matrix(-0.535, 0.845, -0.845, -0.535, 44.353, -5.401)" xlink:href="#c"/><radialGradient id="bn" cx="0.5" cy="0.5" r="0.5" gradientTransform="matrix(-0.535, 0.845, -0.845, -0.535, 8.813, -13.687)" xlink:href="#c"/><radialGradient id="bo" cx="0.5" cy="0.5" r="0.5" gradientTransform="matrix(-0.845, -0.535, 0.535, -0.845, 29.934, -12.645)" xlink:href="#c"/><radialGradient id="bp" cx="0.5" cy="0.5" r="0.5" gradientTransform="matrix(0.535, -0.845, 0.845, 0.535, 11.554, -20.332)" xlink:href="#c"/><radialGradient id="bq" cx="0.5" cy="0.5" r="0.5" gradientTransform="matrix(-0.535, 0.845, -0.845, -0.535, 11.807, 9.546)" xlink:href="#c"/><radialGradient id="br" cx="0.5" cy="0.5" r="0.5" gradientTransform="matrix(0.535, -0.845, 0.845, 0.535, 22.707, -36.184)" xlink:href="#c"/><radialGradient id="bs" cx="0.5" cy="0.5" r="0.5" gradientTransform="matrix(0.535, -0.845, 0.845, 0.535, 12.049, -22.541)" xlink:href="#c"/><radialGradient id="bt" cx="0.5" cy="0.5" r="0.5" gradientTransform="matrix(0.845, 0.535, -0.535, 0.845, -6.074, 20.007)" xlink:href="#c"/><radialGradient id="bu" cx="0.5" cy="0.5" r="0.5" gradientTransform="matrix(0.845, 0.535, -0.535, 0.845, -4.721, 12.651)" xlink:href="#c"/><radialGradient id="bv" cx="0.5" cy="0.5" r="0.5" gradientTransform="matrix(-0.131, 0.991, -0.991, -0.131, -12.142, -0.07)" xlink:href="#c"/><radialGradient id="bw" cx="0.5" cy="0.5" r="0.5" gradientTransform="matrix(-0.535, 0.845, -0.845, -0.535, 4.49, -25.801)" xlink:href="#c"/><radialGradient id="bx" cx="0.5" cy="0.5" r="0.5" gradientTransform="matrix(-0.535, 0.845, -0.845, -0.535, 11.147, -24.567)" xlink:href="#c"/><radialGradient id="by" cx="0.5" cy="0.5" r="0.5" gradientTransform="matrix(-0.845, -0.535, 0.535, -0.845, -96.872, -132.56)" xlink:href="#c"/><radialGradient id="bz" cx="0.5" cy="0.5" r="0.5" gradientTransform="matrix(-0.845, -0.535, 0.535, -0.845, -100.497, -100.457)" xlink:href="#c"/><radialGradient id="ca" cx="0.5" cy="0.5" r="0.5" gradientTransform="matrix(-0.988, -0.156, 0.156, -0.988, -82.889, 64.895)" xlink:href="#c"/><radialGradient id="cb" cx="0.5" cy="0.5" r="0.5" gradientTransform="matrix(-0.7, -0.714, 0.714, -0.7, -53.233, 34.154)" xlink:href="#c"/><radialGradient id="cc" cx="0.5" cy="0.5" r="0.5" gradientTransform="translate(22.163 64.326) rotate(-81.037)" xlink:href="#c"/><radialGradient id="cd" cx="0.5" cy="0.5" r="0.5" gradientTransform="matrix(0.522, -0.853, 0.853, 0.522, 2.119, 38.071)" xlink:href="#c"/><radialGradient id="ce" cx="0.5" cy="0.5" r="0.5" gradientTransform="translate(1.358 4.876) rotate(-28.858)" xlink:href="#c"/><radialGradient id="cf" cx="0.5" cy="0.5" r="0.5" gradientTransform="matrix(0.957, 0.289, -0.289, 0.957, -7.238, 2.762)" xlink:href="#c"/><radialGradient id="cg" cx="0.5" cy="0.5" r="0.5" gradientTransform="matrix(0.988, 0.156, -0.156, 0.988, -9.111, 4.187)" xlink:href="#c"/><radialGradient id="ch" cx="0.5" cy="0.5" r="0.5" gradientTransform="matrix(0.156, -0.988, 0.988, 0.156, 36.87, 42.527)" xlink:href="#c"/><radialGradient id="ci" cx="0.5" cy="0.5" r="0.5" gradientTransform="matrix(0.538, -0.843, 0.843, 0.538, 10.354, 29.011)" xlink:href="#c"/><radialGradient id="cj" cx="0.5" cy="0.5" r="0.5" gradientTransform="matrix(0.988, 0.156, -0.156, 0.988, -18.658, 3.718)" xlink:href="#c"/><radialGradient id="ck" cx="0.5" cy="0.5" r="0.5" gradientTransform="matrix(0.988, 0.156, -0.156, 0.988, -12.636, 2.451)" xlink:href="#c"/><radialGradient id="cl" cx="0.5" cy="0.5" r="0.5" gradientTransform="matrix(0.988, 0.156, -0.156, 0.988, -7.29, 1.204)" xlink:href="#c"/><radialGradient id="cm" cx="0.5" cy="0.5" r="0.5" gradientTransform="translate(-210.473 185.287) rotate(98.963)" xlink:href="#c"/><radialGradient id="cn" cx="0.5" cy="0.5" r="0.5" gradientTransform="matrix(-0.156, 0.988, -0.988, -0.156, -136.067, 114.326)" xlink:href="#c"/><radialGradient id="co" cx="0.5" cy="0.5" r="0.5" gradientTransform="matrix(-0.988, -0.156, 0.156, -0.988, -158.559, 109.353)" xlink:href="#c"/><radialGradient id="cp" cx="0.5" cy="0.5" r="0.5" gradientTransform="matrix(-0.988, -0.156, 0.156, -0.988, -90.498, 85.291)" xlink:href="#c"/><radialGradient id="cq" cx="0.5" cy="0.5" r="0.5" gradientTransform="matrix(0.156, -0.988, 0.988, 0.156, -6.376, 102.929)" xlink:href="#c"/><radialGradient id="cr" cx="0.5" cy="0.5" r="0.5" gradientTransform="matrix(0.156, -0.988, 0.988, 0.156, -6.636, 75.087)" xlink:href="#c"/><radialGradient id="cs" cx="0.5" cy="0.5" r="0.5" gradientTransform="matrix(0.885, -0.466, 0.466, 0.885, -1.35, 2.948)" xlink:href="#c"/><radialGradient id="ct" cx="0.5" cy="0.5" r="0.5" gradientTransform="matrix(0.988, 0.156, -0.156, 0.988, -19.965, 9.417)" xlink:href="#c"/><radialGradient id="cu" cx="0.5" cy="0.5" r="0.5" gradientTransform="translate(-13.516 6.295) rotate(8.963)" xlink:href="#c"/><radialGradient id="cv" cx="0.5" cy="0.5" r="0.5" gradientTransform="matrix(0.156, -0.988, 0.988, 0.156, 29.782, 67.989)" xlink:href="#c"/><radialGradient id="cw" cx="0.5" cy="0.5" r="0.5" gradientTransform="matrix(0.156, -0.988, 0.988, 0.156, 17.753, 51.517)" xlink:href="#c"/><radialGradient id="cx" cx="0.5" cy="0.5" r="0.5" gradientTransform="matrix(0.988, 0.156, -0.156, 0.988, -27.601, 5.404)" xlink:href="#c"/><radialGradient id="cy" cx="0.5" cy="0.5" r="0.5" gradientTransform="matrix(0.988, 0.156, -0.156, 0.988, -18.666, 3.589)" xlink:href="#c"/><radialGradient id="cz" cx="0.5" cy="0.5" r="0.5" gradientTransform="matrix(0.988, 0.156, -0.156, 0.988, -10.77, 1.808)" xlink:href="#c"/><radialGradient id="da" cx="0.5" cy="0.5" r="0.5" gradientTransform="matrix(-0.156, 0.988, -0.988, -0.156, -358.949, 279.957)" xlink:href="#c"/><radialGradient id="db" cx="0.5" cy="0.5" r="0.5" gradientTransform="matrix(-0.156, 0.988, -0.988, -0.156, -238.608, 181.528)" xlink:href="#c"/><radialGradient id="dc" cx="0.5" cy="0.5" r="0.5" gradientTransform="matrix(-0.156, 0.988, -0.988, -0.156, -76.221, 65.948)" xlink:href="#c"/><radialGradient id="dd" cx="0.5" cy="0.5" r="0.5" gradientTransform="matrix(-0.156, 0.988, -0.988, -0.156, -49.93, 36.851)" xlink:href="#c"/><radialGradient id="de" cx="0.5" cy="0.5" r="0.5" gradientTransform="matrix(-0.988, -0.156, 0.156, -0.988, -117.09, 196.112)" xlink:href="#c"/><radialGradient id="df" cx="0.5" cy="0.5" r="0.5" gradientTransform="translate(-62.941 138.565) rotate(-171.037)" xlink:href="#c"/><radialGradient id="dg" cx="0.5" cy="0.5" r="0.5" gradientTransform="matrix(-0.988, -0.156, 0.156, -0.988, -40.222, 60.46)" xlink:href="#c"/><radialGradient id="dh" cx="0.5" cy="0.5" r="0.5" gradientTransform="translate(-17.335 19.351) rotate(-134.894)" xlink:href="#c"/><radialGradient id="di" cx="0.5" cy="0.5" r="0.5" gradientTransform="matrix(0.156, -0.988, 0.988, 0.156, -1.444, 87.262)" xlink:href="#c"/><radialGradient id="dj" cx="0.5" cy="0.5" r="0.5" gradientTransform="matrix(0.156, -0.988, 0.988, 0.156, -0.218, 65.007)" xlink:href="#c"/><radialGradient id="dk" cx="0.5" cy="0.5" r="0.5" gradientTransform="matrix(-0.988, -0.156, 0.156, -0.988, -18.093, 66.71)" xlink:href="#c"/><radialGradient id="dl" cx="0.5" cy="0.5" r="0.5" gradientTransform="matrix(-0.967, -0.254, 0.254, -0.967, -0.766, 53.811)" xlink:href="#c"/><radialGradient id="dm" cx="0.5" cy="0.5" r="0.5" gradientTransform="matrix(0.156, -0.988, 0.988, 0.156, 74.007, 47.424)" xlink:href="#c"/><radialGradient id="dn" cx="0.5" cy="0.5" r="0.5" gradientTransform="matrix(0.156, -0.988, 0.988, 0.156, 46.699, 37.507)" xlink:href="#c"/><radialGradient id="do" cx="0.5" cy="0.5" r="0.5" gradientTransform="matrix(0.156, -0.988, 0.988, 0.156, 24.014, 6.75)" xlink:href="#c"/><radialGradient id="dp" cx="0.5" cy="0.5" r="0.5" gradientTransform="matrix(0.988, 0.156, -0.156, 0.988, -11.432, 9.494)" xlink:href="#c"/><radialGradient id="dq" cx="0.5" cy="0.5" r="0.5" gradientTransform="matrix(0.988, 0.156, -0.156, 0.988, -7.762, 6.347)" xlink:href="#c"/><radialGradient id="dr" cx="0.5" cy="0.5" r="0.5" gradientTransform="matrix(-0.156, 0.988, -0.988, -0.156, -101.474, 114.37)" xlink:href="#c"/><radialGradient id="ds" cx="0.5" cy="0.5" r="0.5" gradientTransform="matrix(-0.882, 0.471, -0.471, -0.882, -50.926, 132.07)" xlink:href="#c"/><radialGradient id="dt" cx="0.5" cy="0.5" r="0.5" gradientTransform="matrix(-0.471, -0.882, 0.882, -0.471, 36.981, 324.755)" xlink:href="#c"/><radialGradient id="du" cx="0.5" cy="0.5" r="0.5" gradientTransform="matrix(-0.471, -0.882, 0.882, -0.471, 27.46, 229.318)" xlink:href="#c"/><radialGradient id="dv" cx="0.5" cy="0.5" r="0.5" gradientTransform="matrix(-0.471, -0.882, 0.882, -0.471, 5.94, 43.641)" xlink:href="#c"/><radialGradient id="dw" cx="0.5" cy="0.5" r="0.5" gradientTransform="matrix(0.882, -0.471, 0.471, 0.882, 41.99, 12.953)" xlink:href="#c"/><radialGradient id="dx" cx="0.5" cy="0.5" r="0.5" gradientTransform="matrix(0.882, -0.471, 0.471, 0.882, 27.471, 9.028)" xlink:href="#c"/><radialGradient id="dy" cx="0.5" cy="0.5" r="0.5" gradientTransform="matrix(-0.988, -0.156, 0.156, -0.988, -15.057, 153.942)" xlink:href="#c"/><radialGradient id="dz" cx="0.5" cy="0.5" r="0.5" gradientTransform="matrix(-0.988, -0.156, 0.156, -0.988, 3.773, 109.79)" xlink:href="#c"/><radialGradient id="ea" cx="0.5" cy="0.5" r="0.5" gradientTransform="matrix(0.156, -0.988, 0.988, 0.156, 105.59, 108.68)" xlink:href="#c"/><radialGradient id="eb" cx="0.5" cy="0.5" r="0.5" gradientTransform="matrix(0.156, -0.988, 0.988, 0.156, 73.358, 79.672)" xlink:href="#c"/><radialGradient id="ec" cx="0.5" cy="0.5" r="0.5" gradientTransform="matrix(0.156, -0.988, 0.988, 0.156, 38.701, 23.029)" xlink:href="#c"/><radialGradient id="ed" cx="0.5" cy="0.5" r="0.5" gradientTransform="matrix(0.988, 0.156, -0.156, 0.988, -16.28, 14.354)" xlink:href="#c"/><radialGradient id="ee" cx="0.5" cy="0.5" r="0.5" gradientTransform="matrix(-0.156, 0.988, -0.988, -0.156, -114.545, 57.011)" xlink:href="#c"/><radialGradient id="ef" cx="0.5" cy="0.5" r="0.5" gradientTransform="matrix(-0.988, -0.156, 0.156, -0.988, -395.4, 307.539)" xlink:href="#c"/><radialGradient id="eg" cx="0.5" cy="0.5" r="0.5" gradientTransform="matrix(-0.988, -0.156, 0.156, -0.988, -253.784, 213.239)" xlink:href="#c"/><radialGradient id="eh" cx="0.5" cy="0.5" r="0.5" gradientTransform="matrix(-0.988, -0.156, 0.156, -0.988, -61.834, 44.4)" xlink:href="#c"/><radialGradient id="ei" cx="0.5" cy="0.5" r="0.5" gradientTransform="matrix(0.156, -0.988, 0.988, 0.156, -99.824, 131.933)" xlink:href="#c"/><radialGradient id="ej" cx="0.5" cy="0.5" r="0.5" gradientTransform="matrix(0.156, -0.988, 0.988, 0.156, -63.282, 95.654)" xlink:href="#c"/><radialGradient id="ek" cx="0.5" cy="0.5" r="0.5" gradientTransform="matrix(0.156, -0.988, 0.988, 0.156, -5.948, 59.559)" xlink:href="#c"/><radialGradient id="el" cx="0.5" cy="0.5" r="0.5" gradientTransform="matrix(0.156, -0.988, 0.988, 0.156, 5.835, 14.195)" xlink:href="#c"/><radialGradient id="em" cx="0.5" cy="0.5" r="0.5" gradientTransform="matrix(0.988, 0.156, -0.156, 0.988, -17.837, 13.945)" xlink:href="#c"/><radialGradient id="en" cx="0.5" cy="0.5" r="0.5" gradientTransform="matrix(-0.156, 0.988, -0.988, -0.156, -79.991, 64.371)" xlink:href="#c"/><radialGradient id="eo" cx="0.5" cy="0.5" r="0.5" gradientTransform="translate(-18.732 64.046) rotate(-81.037)" xlink:href="#c"/><radialGradient id="ep" cx="0.5" cy="0.5" r="0.5" gradientTransform="matrix(-0.156, 0.988, -0.988, -0.156, -123.203, 113.707)" xlink:href="#c"/><radialGradient id="eq" cx="0.5" cy="0.5" r="0.5" gradientTransform="matrix(-0.156, 0.988, -0.988, -0.156, -77.069, 69.783)" xlink:href="#c"/><radialGradient id="er" cx="0.5" cy="0.5" r="0.5" gradientTransform="matrix(-0.988, -0.156, 0.156, -0.988, -196.365, 375.387)" xlink:href="#c"/><radialGradient id="es" cx="0.5" cy="0.5" r="0.5" gradientTransform="matrix(-0.988, -0.156, 0.156, -0.988, -119.54, 258.987)" xlink:href="#c"/><radialGradient id="et" cx="0.5" cy="0.5" r="0.5" gradientTransform="matrix(-0.988, -0.156, 0.156, -0.988, -34.054, 55.147)" xlink:href="#c"/><radialGradient id="eu" cx="0.5" cy="0.5" r="0.5" gradientTransform="translate(-20.23 155.107) rotate(-81.037)" xlink:href="#c"/><radialGradient id="ev" cx="0.5" cy="0.5" r="0.5" gradientTransform="matrix(0.156, -0.988, 0.988, 0.156, -15.981, 110.278)" xlink:href="#c"/><radialGradient id="ew" cx="0.5" cy="0.5" r="0.5" gradientTransform="matrix(0.988, 0.156, -0.156, 0.988, -16.752, 14.34)" xlink:href="#c"/><radialGradient id="ex" cx="0.5" cy="0.5" r="0.5" gradientTransform="matrix(0.988, 0.156, -0.156, 0.988, -11.028, 9.625)" xlink:href="#c"/><linearGradient id="ey" x1="0.5" y1="1.023" x2="0.5" y2="-0.322" gradientUnits="objectBoundingBox"><stop offset="0" stop-color="#fea700"/><stop offset="0.229" stop-color="#fea300"/><stop offset="0.455" stop-color="#fe9700"/><stop offset="0.678" stop-color="#fe8300"/><stop offset="0.9" stop-color="#fe6800"/><stop offset="1" stop-color="#fe5900"/></linearGradient><linearGradient id="ez" x1="0.684" y1="0.923" x2="0.684" y2="-1.027" xlink:href="#ey"/><linearGradient id="fa" x1="-4.347" y1="0.923" x2="-4.347" y2="-1.027" xlink:href="#ey"/><linearGradient id="fb" x1="0.5" y1="1.039" x2="0.5" y2="0.047" gradientUnits="objectBoundingBox"><stop offset="0" stop-color="#1a0200"/><stop offset="1" stop-color="#64180a"/></linearGradient><radialGradient id="fc" cx="0.5" cy="0.5" r="0.5" gradientUnits="objectBoundingBox"><stop offset="0" stop-color="#ffffe7"/><stop offset="0.14" stop-color="#ffffe7" stop-opacity="0.769"/><stop offset="0.32" stop-color="#ffffe7" stop-opacity="0.498"/><stop offset="0.482" stop-color="#ffffe7" stop-opacity="0.282"/><stop offset="0.622" stop-color="#ffffe7" stop-opacity="0.129"/><stop offset="0.732" stop-color="#ffffe7" stop-opacity="0.035"/><stop offset="0.8" stop-color="#ffffe7" stop-opacity="0"/></radialGradient><radialGradient id="fd" cx="0.5" cy="0.5" r="0.5" gradientTransform="matrix(0.707, 0.707, -0.707, 0.707, 0.5, -0.207)" gradientUnits="objectBoundingBox"><stop offset="0" stop-color="#ffffe7"/><stop offset="0.044" stop-color="#ffffe7" stop-opacity="0.855"/><stop offset="0.111" stop-color="#ffffe7" stop-opacity="0.659"/><stop offset="0.183" stop-color="#ffffe7" stop-opacity="0.482"/><stop offset="0.256" stop-color="#ffffe7" stop-opacity="0.333"/><stop offset="0.331" stop-color="#ffffe7" stop-opacity="0.212"/><stop offset="0.41" stop-color="#ffffe7" stop-opacity="0.118"/><stop offset="0.493" stop-color="#ffffe7" stop-opacity="0.051"/><stop offset="0.584" stop-color="#ffffe7" stop-opacity="0.012"/><stop offset="0.697" stop-color="#ffffe7" stop-opacity="0"/></radialGradient></defs><g transform="translate(-499.47 -511.483)"><path class="b" d="M1134.767,1159.91c-28.829-28.645-10.741-66.485,5.773-100.427,17.721-36.422,5.406-56.973,11.345-77.607s6.325-35.986.389-51.5,17.7-57.387,6.05-89.848-6.173-60.438-19.578-91.214c-17.43-40.015-.825-60.743-30.69-94.926s-38.753-61.695-94.541-85.5-125.187-12.9-174.816,31.125c-28.372,25.168-43.747,40.875-57.451,49.58-10.941,5.666-23.82-3.1-54.073-45.923-40.619-57.493-97.071-92.187-97.071-92.187-14.074,2.785-8.552,16.186-8.552,16.186S666.67,553.7,720.826,622.81c12.049,15.377,24.438,37.616,21.169,47.942h0c-13.9,18.919-43.534,31.474-87.626,51.411-53.011,23.971-85.165,80.995-69.972,138.123S607.279,949.5,635.432,969.1s57.652,53.946,77.12,88.32,50.5,29.189,72.559,57.664,48.222,9.631,71.729,25.927c35.7,24.751,58.639-3.408,95.028,15.668s66.068,13.857,94.237,3.991,52.226-7.093,90.707,15.017,72.107,32.442,96.227,11.089C1212.5,1197.322,1170.214,1195.13,1134.767,1159.91Z" transform="translate(-35.768 0)"/><g transform="translate(544.856 556.576)"><g class="c" transform="translate(0 0)"><g transform="translate(-76.343 195.838)"><path class="d" d="M1017.94,959.407a11.15,11.15,0,1,1-3.448-15.386A11.15,11.15,0,0,1,1017.94,959.407Z" transform="translate(-687.957 -942.286)"/><path class="e" d="M1136.5,1155.374a16.53,16.53,0,1,1-5.112-22.812A16.53,16.53,0,0,1,1136.5,1155.374Z" transform="translate(-735.838 -1025.015)"/><path class="f" d="M1158.9,1211.461a5.353,5.353,0,1,1,7.387-1.655A5.353,5.353,0,0,1,1158.9,1211.461Z" transform="translate(-758.051 -1056.57)"/><path class="g" d="M1084.007,1278.865a7.936,7.936,0,1,1,10.953-2.454A7.936,7.936,0,0,1,1084.007,1278.865Z" transform="translate(-724.515 -1084.177)"/><path class="h" d="M1016.688,1037.793a16.53,16.53,0,1,1,22.811-5.111A16.529,16.529,0,0,1,1016.688,1037.793Z" transform="translate(-693.085 -970.94)"/><path class="i" d="M938.1,1044.826a18.874,18.874,0,1,1,5.836,26.045A18.873,18.873,0,0,1,938.1,1044.826Z" transform="translate(-660.542 -983.614)"/><path class="j" d="M906.742,985.3A7.936,7.936,0,1,1,909.2,996.25,7.937,7.937,0,0,1,906.742,985.3Z" transform="translate(-647.47 -959.617)"/><path class="k" d="M1342.973,1282.5a11.15,11.15,0,1,1,15.386-3.448A11.15,11.15,0,0,1,1342.973,1282.5Z" transform="translate(-837.993 -1083.164)"/><path class="l" d="M1143.8,1448.9a16.53,16.53,0,1,1,22.811-5.112A16.53,16.53,0,0,1,1143.8,1448.9Z" transform="translate(-749.108 -1152.133)"/><path class="m" d="M1105.329,1471.3a5.353,5.353,0,1,1,1.656,7.388A5.353,5.353,0,0,1,1105.329,1471.3Z" transform="translate(-735.172 -1174.345)"/><path class="n" d="M1033.853,1396.408a7.936,7.936,0,1,1,2.454,10.953A7.936,7.936,0,0,1,1033.853,1396.408Z" transform="translate(-703.492 -1140.81)"/><path class="o" d="M1181.162,1287.141a16.53,16.53,0,1,1,5.111,22.811A16.53,16.53,0,0,1,1181.162,1287.141Z" transform="translate(-767.828 -1090.891)"/><path class="p" d="M1176.387,1248.672a5.353,5.353,0,1,1-7.387,1.655A5.353,5.353,0,0,1,1176.387,1248.672Z" transform="translate(-763.234 -1076.955)"/><path class="q" d="M1290.4,1151.174a7.937,7.937,0,1,1-10.952,2.454A7.936,7.936,0,0,1,1290.4,1151.174Z" transform="translate(-811.736 -1033.807)"/><path class="r" d="M729.508,956.658a7.713,7.713,0,1,1-2.385-10.644A7.713,7.713,0,0,1,729.508,956.658Z" transform="translate(-563.629 -943.4)"/><path class="s" d="M836.545,1127.284a11.435,11.435,0,1,1-3.536-15.78A11.435,11.435,0,0,1,836.545,1127.284Z" transform="translate(-607.778 -1016.083)"/><path class="t" d="M852.036,1166.083a3.7,3.7,0,1,1,5.111-1.145A3.7,3.7,0,0,1,852.036,1166.083Z" transform="translate(-623.144 -1037.911)"/><path class="u" d="M800.23,1212.71a5.49,5.49,0,1,1,7.576-1.7A5.49,5.49,0,0,1,800.23,1212.71Z" transform="translate(-599.945 -1057.009)"/><circle class="v" cx="29.112" cy="29.112" r="29.112" transform="translate(117.161 49.668) rotate(-2.671)"/><path class="w" d="M666.285,1096.8a3.7,3.7,0,1,1,1.145,5.11A3.7,3.7,0,0,1,666.285,1096.8Z" transform="translate(-541.781 -1009.63)"/><path class="x" d="M616.841,1045a5.49,5.49,0,1,1,1.7,7.576A5.49,5.49,0,0,1,616.841,1045Z" transform="translate(-519.867 -986.431)"/><circle class="y" cx="7.713" cy="7.713" r="7.713" transform="matrix(0.153, -0.988, 0.988, 0.153, 279.545, 168.91)"/><path class="z" d="M841.591,1330.336a11.435,11.435,0,1,1,15.78-3.536A11.435,11.435,0,0,1,841.591,1330.336Z" transform="translate(-616.957 -1104.018)"/><path class="aa" d="M814.98,1345.827a3.7,3.7,0,1,1,1.145,5.111A3.7,3.7,0,0,1,814.98,1345.827Z" transform="translate(-607.317 -1119.384)"/><path class="ab" d="M765.535,1294.021a5.49,5.49,0,1,1,1.7,7.577A5.491,5.491,0,0,1,765.535,1294.021Z" transform="translate(-585.402 -1096.185)"/><path class="ac" d="M867.438,1218.435a11.435,11.435,0,1,1,3.536,15.78A11.435,11.435,0,0,1,867.438,1218.435Z" transform="translate(-629.907 -1061.653)"/><path class="ad" d="M864.136,1191.823a3.7,3.7,0,1,1-5.111,1.145A3.7,3.7,0,0,1,864.136,1191.823Z" transform="translate(-626.729 -1052.013)"/><path class="ae" d="M913.123,1142.379a5.49,5.49,0,1,1-7.576,1.7A5.491,5.491,0,0,1,913.123,1142.379Z" transform="translate(-647.111 -1030.099)"/><path class="af" d="M1105.245,1601.4a11.15,11.15,0,1,1-15.387,3.448A11.15,11.15,0,0,1,1105.245,1601.4Z" transform="translate(-727.955 -1232.017)"/><path class="ag" d="M1208.3,1424.354a16.53,16.53,0,1,1-22.811,5.111A16.53,16.53,0,0,1,1208.3,1424.354Z" transform="translate(-769.733 -1153.619)"/><path class="ah" d="M1264.384,1419.579a5.353,5.353,0,1,1-1.655-7.387A5.353,5.353,0,0,1,1264.384,1419.579Z" transform="translate(-801.288 -1149.025)"/><path class="ai" d="M1350.836,1502.471a7.937,7.937,0,1,1-2.454-10.953A7.937,7.937,0,0,1,1350.836,1502.471Z" transform="translate(-837.29 -1183.81)"/><path class="aj" d="M1170.933,1586.117a16.53,16.53,0,1,1-5.112-22.811A16.531,16.531,0,0,1,1170.933,1586.117Z" transform="translate(-751.013 -1214.86)"/><circle class="ak" cx="35.7" cy="35.7" r="35.7" transform="translate(501.65 329.407) rotate(-3.095)"/><path class="al" d="M1193.325,1642.206a5.353,5.353,0,1,1,7.388-1.655A5.354,5.354,0,0,1,1193.325,1642.206Z" transform="translate(-773.225 -1246.415)"/><path class="am" d="M1162.881,1737.783a7.937,7.937,0,1,1,10.953-2.454A7.937,7.937,0,0,1,1162.881,1737.783Z" transform="translate(-759.278 -1286.439)"/><path class="an" d="M1404.636,1243.54a11.15,11.15,0,1,1-3.447-15.386A11.149,11.149,0,0,1,1404.636,1243.54Z" transform="translate(-858.389 -1067.515)"/><path class="ao" d="M1542.463,1442.817a16.53,16.53,0,1,1-5.112-22.811A16.529,16.529,0,0,1,1542.463,1442.817Z" transform="translate(-914.76 -1151.703)"/><path class="ap" d="M1564.855,1498.905a5.354,5.354,0,1,1,7.388-1.656A5.353,5.353,0,0,1,1564.855,1498.905Z" transform="translate(-936.973 -1183.257)"/><path class="aq" d="M1477.268,1558.26a7.936,7.936,0,1,1,10.952-2.454A7.936,7.936,0,0,1,1477.268,1558.26Z" transform="translate(-897.841 -1207.317)"/><path class="ar" d="M1340.064,1379.7a16.53,16.53,0,1,1,22.811-5.111A16.53,16.53,0,0,1,1340.064,1379.7Z" transform="translate(-835.609 -1121.63)"/><path class="as" d="M1301.594,1402.088a5.353,5.353,0,1,1,1.655,7.388A5.354,5.354,0,0,1,1301.594,1402.088Z" transform="translate(-821.673 -1143.842)"/><path class="at" d="M1230.118,1327.2a7.937,7.937,0,1,1,2.454,10.952A7.936,7.936,0,0,1,1230.118,1327.2Z" transform="translate(-789.994 -1110.306)"/><path class="au" d="M1116.27,1859.474a7.713,7.713,0,1,1-10.644,2.385A7.714,7.714,0,0,1,1116.27,1859.474Z" transform="translate(-735.14 -1345.997)"/><circle class="av" cx="11.435" cy="11.435" r="11.435" transform="matrix(0.656, -0.755, 0.755, 0.656, 471.725, 550.243)"/><path class="aw" d="M1352.14,1940.705a3.7,3.7,0,1,1,3.385-4A3.7,3.7,0,0,1,1352.14,1940.705Z" transform="translate(-842.551 -1379.069)"/><path class="ax" d="M1339.509,2008.008a5.49,5.49,0,1,1,5.02-5.924A5.49,5.49,0,0,1,1339.509,2008.008Z" transform="translate(-836.131 -1407.159)"/><circle class="ay" cx="23.714" cy="23.714" r="23.714" transform="translate(417.031 571.002) rotate(-74.434)"/><path class="az" d="M1195.939,1949.44a3.7,3.7,0,1,1,4,3.386A3.7,3.7,0,0,1,1195.939,1949.44Z" transform="translate(-775.468 -1384.41)"/><path class="ba" d="M1125.818,1936.809a5.49,5.49,0,1,1,5.924,5.019A5.49,5.49,0,0,1,1125.818,1936.809Z" transform="translate(-744.56 -1377.991)"/><path class="bb" d="M1317.891,1645.389a7.713,7.713,0,1,1-2.385-10.644A7.713,7.713,0,0,1,1317.891,1645.389Z" transform="translate(-822.952 -1246.951)"/><path class="bc" d="M1423.894,1753.055a11.435,11.435,0,1,1-3.536-15.78A11.434,11.434,0,0,1,1423.894,1753.055Z" transform="translate(-866.645 -1291.885)"/><path class="bd" d="M1430.5,1786.22a3.7,3.7,0,1,1,5.11-1.145A3.7,3.7,0,0,1,1430.5,1786.22Z" transform="translate(-878.094 -1311.23)"/><path class="be" d="M1423.136,1861.021a5.49,5.49,0,1,1,7.576-1.7A5.491,5.491,0,0,1,1423.136,1861.021Z" transform="translate(-874.484 -1342.744)"/><path class="bf" d="M1303.1,1721.574a11.435,11.435,0,1,1,15.78-3.535A11.435,11.435,0,0,1,1303.1,1721.574Z" transform="translate(-820.363 -1276.452)"/><path class="bg" d="M1320.937,1765.239a3.7,3.7,0,1,1,1.146,5.111A3.7,3.7,0,0,1,1320.937,1765.239Z" transform="translate(-830.312 -1304.234)"/><path class="bh" d="M502.842,1199.6a11.435,11.435,0,1,1-15.78,3.536A11.434,11.434,0,0,1,502.842,1199.6Z" transform="translate(-462.261 -1054.91)"/><path class="bi" d="M541.641,1196.294a3.7,3.7,0,1,1-1.145-5.11A3.7,3.7,0,0,1,541.641,1196.294Z" transform="translate(-484.089 -1051.731)"/><path class="bj" d="M588.269,1245.283a5.49,5.49,0,1,1-1.7-7.576A5.491,5.491,0,0,1,588.269,1245.283Z" transform="translate(-503.187 -1072.113)"/><path class="bk" d="M487.863,1333.352a23.713,23.713,0,1,1-7.332-32.725A23.713,23.713,0,0,1,487.863,1333.352Z" transform="translate(-444.117 -1098.595)"/><path class="bl" d="M472.362,1382.044a3.7,3.7,0,1,1,5.111-1.145A3.7,3.7,0,0,1,472.362,1382.044Z" transform="translate(-455.807 -1133.094)"/><path class="bm" d="M484.049,1468.92a5.49,5.49,0,1,1,7.577-1.7A5.49,5.49,0,0,1,484.049,1468.92Z" transform="translate(-460.592 -1169.93)"/><path class="bn" d="M669.58,1279.977a5.49,5.49,0,1,1,7.576-1.7A5.491,5.491,0,0,1,669.58,1279.977Z" transform="translate(-542.363 -1086.656)"/><path class="bo" d="M657.486,1208.951a11.435,11.435,0,1,1,15.78-3.536A11.434,11.434,0,0,1,657.486,1208.951Z" transform="translate(-535.815 -1050.519)"/><path class="bp" d="M630.875,1224.442a3.7,3.7,0,1,1,1.145,5.11A3.7,3.7,0,0,1,630.875,1224.442Z" transform="translate(-526.175 -1065.885)"/><path class="bq" d="M1056.346,1550.6a11.15,11.15,0,1,1-15.387,3.448A11.149,11.149,0,0,1,1056.346,1550.6Z" transform="translate(-706.404 -1209.627)"/><path class="br" d="M883.646,1599.327a7.937,7.937,0,1,1,10.953-2.454A7.937,7.937,0,0,1,883.646,1599.327Z" transform="translate(-636.209 -1225.416)"/><path class="bs" d="M881.48,1749.192a7.713,7.713,0,1,1-10.644,2.385A7.713,7.713,0,0,1,881.48,1749.192Z" transform="translate(-631.66 -1297.392)"/><path class="bt" d="M1021.608,1670.359a11.435,11.435,0,1,1-15.78,3.536A11.435,11.435,0,0,1,1021.608,1670.359Z" transform="translate(-690.901 -1262.392)"/><path class="bu" d="M1060.407,1667.056a3.7,3.7,0,1,1-1.146-5.11A3.7,3.7,0,0,1,1060.407,1667.056Z" transform="translate(-712.729 -1259.214)"/><path class="bv" d="M1107.035,1716.044a5.49,5.49,0,1,1-1.7-7.576A5.491,5.491,0,0,1,1107.035,1716.044Z" transform="translate(-731.827 -1279.595)"/><circle class="bw" cx="22.767" cy="22.767" r="22.767" transform="translate(272.256 465.456) rotate(-65.135)"/><path class="bx" d="M973.156,1796.912a3.7,3.7,0,1,1,5.11-1.146A3.7,3.7,0,0,1,973.156,1796.912Z" transform="translate(-676.526 -1315.941)"/><path class="by" d="M921.351,1843.539a5.49,5.49,0,1,1,7.576-1.7A5.489,5.489,0,0,1,921.351,1843.539Z" transform="translate(-653.328 -1335.039)"/><path class="bz" d="M1086.148,1654.957a3.7,3.7,0,1,1,1.145,5.11A3.7,3.7,0,0,1,1086.148,1654.957Z" transform="translate(-726.831 -1255.629)"/><path class="ca" d="M1271.493,1713.434a5.49,5.49,0,1,1,1.7,7.576A5.49,5.49,0,0,1,1271.493,1713.434Z" transform="translate(-808.397 -1281.036)"/></g><g transform="translate(335.299 -84.206)"><path class="cb" d="M1906.18,1291.8a11.149,11.149,0,1,1,9.275,12.751A11.149,11.149,0,0,1,1906.18,1291.8Z" transform="translate(-1500.085 -812.137)"/><circle class="cc" cx="16.53" cy="16.53" r="16.53" transform="translate(289.448 402.987) rotate(-36.618)"/><path class="cd" d="M1687.275,1123.422a5.353,5.353,0,1,1-6.122,4.454A5.353,5.353,0,0,1,1687.275,1123.422Z" transform="translate(-1400.938 -742.046)"/><circle class="ce" cx="7.936" cy="7.936" r="7.936" transform="translate(296.875 331.966) rotate(-22.474)"/><circle class="cf" cx="16.53" cy="16.53" r="16.53" transform="translate(366.425 450.737) rotate(-52.179)"/><circle class="cg" cx="18.874" cy="18.874" r="18.874" transform="translate(396.769 399.319) rotate(-7.858)"/><path class="ch" d="M2003.807,1227.721a7.936,7.936,0,1,1-6.6-9.076A7.936,7.936,0,0,1,2003.807,1227.721Z" transform="translate(-1536.22 -784.001)"/><path class="ci" d="M1479.551,1124.4a11.15,11.15,0,1,1-12.75,9.276A11.15,11.15,0,0,1,1479.551,1124.4Z" transform="translate(-1306.434 -742.448)"/><circle class="cj" cx="16.53" cy="16.53" r="16.53" transform="translate(211.291 256.508) rotate(-23.561)"/><path class="ck" d="M1633.223,863.685a5.353,5.353,0,1,1-4.453-6.122A5.353,5.353,0,0,1,1633.223,863.685Z" transform="translate(-1375.153 -624.872)"/><path class="cl" d="M1723.853,900.926a7.937,7.937,0,1,1-6.6-9.076A7.937,7.937,0,0,1,1723.853,900.926Z" transform="translate(-1412.833 -639.97)"/><path class="cm" d="M1616.387,1049.418a16.53,16.53,0,1,1-13.752-18.9A16.529,16.529,0,0,1,1616.387,1049.418Z" transform="translate(-1357.94 -701.037)"/><path class="cn" d="M1656.442,1096.22a5.353,5.353,0,1,1,6.123-4.453A5.353,5.353,0,0,1,1656.442,1096.22Z" transform="translate(-1388.085 -725.396)"/><path class="co" d="M1585.824,1227.889a7.937,7.937,0,1,1,9.076-6.6A7.937,7.937,0,0,1,1585.824,1227.889Z" transform="translate(-1355.999 -781.164)"/><path class="cp" d="M2178.243,1183.871a7.713,7.713,0,1,1,6.416,8.821A7.713,7.713,0,0,1,2178.243,1183.871Z" transform="translate(-1620.012 -765.848)"/><path class="cq" d="M2005.446,1065.341a11.435,11.435,0,1,1,9.513,13.077A11.435,11.435,0,0,1,2005.446,1065.341Z" transform="translate(-1543.833 -712.222)"/><path class="cr" d="M1989.924,1045.153a3.7,3.7,0,1,1-4.235,3.081A3.7,3.7,0,0,1,1989.924,1045.153Z" transform="translate(-1535.168 -707.559)"/><path class="cs" d="M2015.686,979.643a5.49,5.49,0,1,1-6.279,4.567A5.489,5.489,0,0,1,2015.686,979.643Z" transform="translate(-1545.612 -678.677)"/><circle class="ct" cx="29.112" cy="29.112" r="29.112" transform="matrix(0.598, -0.802, 0.802, 0.598, 508.792, 357.834)"/><path class="cu" d="M2187.911,1034.948a3.7,3.7,0,1,1-3.08-4.235A3.7,3.7,0,0,1,2187.911,1034.948Z" transform="translate(-1621.071 -701.195)"/><path class="cv" d="M2250.6,1060.709a5.49,5.49,0,1,1-4.567-6.279A5.491,5.491,0,0,1,2250.6,1060.709Z" transform="translate(-1647.137 -711.639)"/><path class="cw" d="M1866.5,1017.444a7.713,7.713,0,1,1-8.821,6.416A7.713,7.713,0,0,1,1866.5,1017.444Z" transform="translate(-1478.729 -695.325)"/><path class="cx" d="M1920.157,881a11.435,11.435,0,1,1-13.077,9.513A11.434,11.434,0,0,1,1920.157,881Z" transform="translate(-1500.48 -635.168)"/><path class="cy" d="M1952.533,865.478a3.7,3.7,0,1,1-3.081-4.235A3.7,3.7,0,0,1,1952.533,865.478Z" transform="translate(-1517.33 -626.503)"/><path class="cz" d="M2015.227,891.239a5.49,5.49,0,1,1-4.568-6.279A5.491,5.491,0,0,1,2015.227,891.239Z" transform="translate(-1543.396 -636.947)"/><path class="da" d="M1940.887,993.961a11.435,11.435,0,1,1-9.513-13.077A11.435,11.435,0,0,1,1940.887,993.961Z" transform="translate(-1505.424 -679.191)"/><path class="db" d="M1968.6,1026.337a3.7,3.7,0,1,1,4.234-3.081A3.7,3.7,0,0,1,1968.6,1026.337Z" transform="translate(-1526.277 -696.042)"/><path class="dc" d="M1940.018,1089.03a5.49,5.49,0,1,1,6.278-4.567A5.49,5.49,0,0,1,1940.018,1089.03Z" transform="translate(-1513.016 -722.107)"/><path class="dd" d="M1571.047,737.31a11.15,11.15,0,1,1,12.751-9.275A11.148,11.148,0,0,1,1571.047,737.31Z" transform="translate(-1348.291 -562.133)"/><path class="de" d="M1536.982,934.273a16.53,16.53,0,1,1,18.9-13.752A16.529,16.529,0,0,1,1536.982,934.273Z" transform="translate(-1331.275 -644.227)"/><path class="df" d="M1507.8,974.329a5.353,5.353,0,1,1,4.454,6.122A5.354,5.354,0,0,1,1507.8,974.329Z" transform="translate(-1324.534 -674.372)"/><path class="dg" d="M1390.82,929.5a7.936,7.936,0,1,1,6.6,9.076A7.936,7.936,0,0,1,1390.82,929.5Z" transform="translate(-1272.964 -653.654)"/><path class="dh" d="M1507.015,770.977a16.53,16.53,0,1,1,13.752,18.9A16.531,16.531,0,0,1,1507.015,770.977Z" transform="translate(-1324.128 -580.589)"/><circle class="di" cx="35.7" cy="35.7" r="35.7" transform="matrix(0.808, -0.59, 0.59, 0.808, 26.742, 237.467)"/><path class="dj" d="M1484.578,741.794a5.353,5.353,0,1,1-6.122,4.453A5.354,5.354,0,0,1,1484.578,741.794Z" transform="translate(-1311.602 -573.848)"/><path class="dk" d="M1469.839,638.892a7.936,7.936,0,1,1-9.076,6.6A7.936,7.936,0,0,1,1469.839,638.892Z" transform="translate(-1303.79 -528.481)"/><path class="dl" d="M1438.435,1184.648a11.15,11.15,0,1,1,9.276,12.751A11.15,11.15,0,0,1,1438.435,1184.648Z" transform="translate(-1293.932 -764.911)"/><circle class="dm" cx="16.53" cy="16.53" r="16.53" transform="matrix(0.995, -0.1, 0.1, 0.995, 22.262, 334.255)"/><path class="dn" d="M1200.538,1020.884a5.353,5.353,0,1,1-6.122,4.453A5.352,5.352,0,0,1,1200.538,1020.884Z" transform="translate(-1186.415 -696.854)"/><path class="do" d="M1252.629,928.525a7.937,7.937,0,1,1-9.076,6.6A7.937,7.937,0,0,1,1252.629,928.525Z" transform="translate(-1208.057 -656.134)"/><path class="dp" d="M1433.8,1027.6a16.53,16.53,0,1,1-18.9,13.752A16.531,16.531,0,0,1,1433.8,1027.6Z" transform="translate(-1283.526 -699.752)"/><path class="dq" d="M1480.6,1005.161a5.353,5.353,0,1,1-4.454-6.122A5.353,5.353,0,0,1,1480.6,1005.161Z" transform="translate(-1307.885 -687.226)"/><path class="dr" d="M1571.227,1042.4a7.936,7.936,0,1,1-6.6-9.077A7.937,7.937,0,0,1,1571.227,1042.4Z" transform="translate(-1345.565 -702.323)"/><path class="ds" d="M1464.685,508.965a7.713,7.713,0,1,1,8.821-6.416A7.712,7.712,0,0,1,1464.685,508.965Z" transform="translate(-1302.692 -464.503)"/><path class="dt" d="M1250.271,534.747a11.435,11.435,0,1,1,15.475,4.692A11.435,11.435,0,0,1,1250.271,534.747Z" transform="translate(-1210.465 -475.207)"/><path class="du" d="M1223.272,532.916a3.7,3.7,0,1,1-1.52,5.012A3.7,3.7,0,0,1,1223.272,532.916Z" transform="translate(-1198.299 -481.624)"/><path class="dv" d="M1204.869,463.991a5.49,5.49,0,1,1-2.253,7.43A5.49,5.49,0,0,1,1204.869,463.991Z" transform="translate(-1189.772 -451.153)"/><path class="dw" d="M1303.951,460.337a23.714,23.714,0,1,1-9.731,32.093A23.713,23.713,0,0,1,1303.951,460.337Z" transform="translate(-1229.195 -448.592)"/><path class="dx" d="M1363.152,462.853a3.7,3.7,0,1,1-5.012-1.52A3.7,3.7,0,0,1,1363.152,462.853Z" transform="translate(-1257.741 -450.075)"/><path class="dy" d="M1429.259,444.45a5.49,5.49,0,1,1-7.43-2.253A5.489,5.489,0,0,1,1429.259,444.45Z" transform="translate(-1285.395 -441.548)"/><path class="dz" d="M1364.692,785.524a7.713,7.713,0,1,1,6.417,8.821A7.713,7.713,0,0,1,1364.692,785.524Z" transform="translate(-1261.449 -590.281)"/><path class="ea" d="M1217.852,724.363a11.435,11.435,0,1,1,9.513,13.077A11.434,11.434,0,0,1,1217.852,724.363Z" transform="translate(-1196.711 -561.94)"/><path class="eb" d="M1212.726,705.814a3.7,3.7,0,1,1-4.235,3.081A3.7,3.7,0,0,1,1212.726,705.814Z" transform="translate(-1192.627 -558)"/><path class="ec" d="M1186.508,632.1a5.49,5.49,0,1,1-6.279,4.567A5.491,5.491,0,0,1,1186.508,632.1Z" transform="translate(-1180.161 -525.503)"/><path class="ed" d="M1341.209,705.274a11.435,11.435,0,1,1-13.077,9.512A11.434,11.434,0,0,1,1341.209,705.274Z" transform="translate(-1245.315 -557.719)"/><path class="ee" d="M1321.605,681.551a3.7,3.7,0,1,1-3.081-4.235A3.7,3.7,0,0,1,1321.605,681.551Z" transform="translate(-1239.257 -545.439)"/><path class="ef" d="M2282.968,866.423a11.435,11.435,0,1,1,13.077-9.513A11.435,11.435,0,0,1,2282.968,866.423Z" transform="translate(-1661.955 -618.788)"/><path class="eg" d="M2262.78,894.132a3.7,3.7,0,1,1,3.081,4.235A3.7,3.7,0,0,1,2262.78,894.132Z" transform="translate(-1657.293 -639.641)"/><path class="eh" d="M2197.27,865.554a5.49,5.49,0,1,1,4.567,6.279A5.49,5.49,0,0,1,2197.27,865.554Z" transform="translate(-1628.41 -626.38)"/><path class="ei" d="M2221.181,723.008a23.714,23.714,0,1,1,19.728,27.119A23.714,23.714,0,0,1,2221.181,723.008Z" transform="translate(-1638.849 -556.773)"/><path class="ej" d="M2252.576,696.146a3.7,3.7,0,1,1-4.235,3.08A3.7,3.7,0,0,1,2252.576,696.146Z" transform="translate(-1650.929 -553.739)"/><path class="ek" d="M2204.08,618.92a5.49,5.49,0,1,1-6.279,4.568A5.491,5.491,0,0,1,2204.08,618.92Z" transform="translate(-1628.644 -519.692)"/><path class="el" d="M2108.866,866.013a5.49,5.49,0,1,1-6.279,4.568A5.491,5.491,0,0,1,2108.866,866.013Z" transform="translate(-1586.68 -628.596)"/><path class="em" d="M2137.332,919.267a11.435,11.435,0,1,1-13.077,9.513A11.435,11.435,0,0,1,2137.332,919.267Z" transform="translate(-1596.197 -652.034)"/><path class="en" d="M2169.708,903.745a3.7,3.7,0,1,1-3.081-4.235A3.7,3.7,0,0,1,2169.708,903.745Z" transform="translate(-1613.047 -643.369)"/><path class="eo" d="M1636.1,764.508a11.15,11.15,0,1,1,12.751-9.276A11.15,11.15,0,0,1,1636.1,764.508Z" transform="translate(-1376.963 -574.12)"/><path class="ep" d="M1781.1,655.038a7.936,7.936,0,1,1-9.076,6.6A7.936,7.936,0,0,1,1781.1,655.038Z" transform="translate(-1440.973 -535.598)"/><path class="eq" d="M1723.964,516.911a7.713,7.713,0,1,1,8.821-6.417A7.713,7.713,0,0,1,1723.964,516.911Z" transform="translate(-1416.966 -468.005)"/><path class="er" d="M1619.888,640.458a11.435,11.435,0,1,1,13.077-9.513A11.435,11.435,0,0,1,1619.888,640.458Z" transform="translate(-1369.711 -519.197)"/><path class="es" d="M1599.7,668.167a3.7,3.7,0,1,1,3.081,4.235A3.7,3.7,0,0,1,1599.7,668.167Z" transform="translate(-1365.048 -540.05)"/><path class="et" d="M1534.19,639.589a5.49,5.49,0,1,1,4.568,6.279A5.49,5.49,0,0,1,1534.19,639.589Z" transform="translate(-1336.165 -526.789)"/><path class="eu" d="M1600.414,540.686a22.767,22.767,0,1,1,18.941,26.037A22.767,22.767,0,0,1,1600.414,540.686Z" transform="translate(-1365.259 -476.77)"/><path class="ev" d="M1628.192,514.339a3.7,3.7,0,1,1-4.235,3.08A3.7,3.7,0,0,1,1628.192,514.339Z" transform="translate(-1375.739 -473.609)"/><path class="ew" d="M1653.952,448.828a5.49,5.49,0,1,1-6.279,4.568A5.49,5.49,0,0,1,1653.952,448.828Z" transform="translate(-1386.182 -444.726)"/><path class="ex" d="M1580.884,689.5a3.7,3.7,0,1,1-3.08-4.235A3.7,3.7,0,0,1,1580.884,689.5Z" transform="translate(-1353.531 -548.941)"/><path class="ey" d="M1384.3,707.312a5.49,5.49,0,1,1-4.567-6.279A5.491,5.491,0,0,1,1384.3,707.312Z" transform="translate(-1265.323 -555.883)"/></g><g transform="translate(28.586 -47.784)"><path class="ez" d="M1542.328,960.4c-2.073-9.861-2.224-21.41-.142-29.908s-1.861-15.935-8.59-29.428-22.5-18.98-36.687-14.624c-11.817,3.628-19.606,6.217-25.459,4.928-2.047-1.262-3.112-6.236-3.755-10.757a49.275,49.275,0,0,0,9.683-13.7c6.2-12.371,6.237-6.295,12.684-24.12s2.588-30.884-2.336-38.024-13.561-17.1-28.21-20.671a44.073,44.073,0,0,1-14.22-5.887c-1.618-3.574,3.23-14.359,6.641-20.543,7.2-13.065,18.385-27.152,18.385-27.152s1.1-3.27-8.224-1.659c-19.391,35.367-25.777,44.525-29.5,43.961-2.3-1.338-4.785-3.348-8.158-5.527-7.158-4.628-19.842-9.656-30.23-6.727s-19,7.3-25.251,16.04-16.074,22.845-17.41,30.855-1.09,16.615-3.118,23.72-.805,14.143-.049,20.36-3.265,13,.007,20.9c3.989,9.626.594,14.54,4.528,21.566s4.691,14.275,8.528,19.846,10.851,15.045,8.769,20.065a32.139,32.139,0,0,1-23.5,19.793c-15.4,3.235-27.577-3.15-30.341-8.833.076,9.057,13.551,13.351,23.667,13.545s25.875-4.326,32.5-12.67c6.37-8.029,15.464-12.169,25.913-16.149-1.126,7.046.193,12.648.227,20.4.052,11.578,6.725,12.743,10.14,23.339a33.552,33.552,0,0,0,4.245,8.387,56.323,56.323,0,0,1-.225,6.627c-.207,1.944-.252,4.139-1.166,4.725-1.776.436-3.44-.62-6.3-1.634-3.436-1.217-9.209-2.054-13.241.192s-7.181,4.916-8.917,9.17-4.427,11.094-4.191,14.558,1.19,7.02,1.049,10.176,1.063,5.963,1.994,8.475-.072,5.731,2.07,8.692c2.612,3.61,1.685,5.99,4.017,8.524s3.363,5.475,5.511,7.413,6,5.185,5.632,7.479a13.742,13.742,0,0,1-7.82,10.558c-6.088,2.87-11.783,1.418-13.495-.673.927,3.76,6.958,4.214,11.185,3.294s10.336-4.359,12.265-8.485,5.494-6.8,9.648-9.6,7.354-5.05,8.766-7.16,5.283-3.909,6.474-7.14,4.724-6.06,6.145-9.054,3.428-4.456,4.783-10.215,1.972-3.236,2.89-11.289c.024-.205.034-.4.053-.6a27.148,27.148,0,0,0,5.342,4.292c4.617,2.946,5.727,8.956,15.261,12.935,8.885,3.709,18.729,7.9,18.045,18.242-.841,12.718-8.562,20.269-14.271,21.716,8.217.017,12.908-7.632,16.541-18.353s7.769-15.31,14.822-18.174,13.613-6.872,17.358-16.66,12.882-8.269,15.539-19.027c1.748-7.083,9.933-7.891,9.35-17.06S1544.4,970.265,1542.328,960.4Zm-127.719,33.323c-.8-.4-1.284-3.812-.214-10.021a50.8,50.8,0,0,1,6.057,10.394c.116.293.265.569.4.851A17.442,17.442,0,0,1,1414.609,993.727Zm38.91-99.4a43.574,43.574,0,0,0,7.449-6.751,40.232,40.232,0,0,1,2.892-3.2c.266,6.736-1.182,9.016-3.469,9.587A44.028,44.028,0,0,1,1453.519,894.322Z" transform="translate(-933.48 -604.403)"/><path class="fa" d="M634.892,966.693c-.4,6.328,5.246,6.885,6.453,11.774,1.833,7.425,8.14,6.376,10.724,13.132s7.11,9.521,11.979,11.5,7.722,5.143,10.229,12.543,5.745,12.678,11.415,12.667c-3.94-1-9.269-6.21-9.849-14.988-.473-7.138,6.321-10.029,12.453-12.588,6.58-2.747,7.346-6.894,10.533-8.927a18.774,18.774,0,0,0,3.687-2.962c.012.139.02.274.036.415.634,5.557,1.059,3.816,1.995,7.79s2.321,4.984,3.3,7.05,3.419,4.019,4.241,6.249,3.493,3.471,4.468,4.927,3.183,3.007,6.05,4.941,5.328,3.777,6.659,6.624,5.547,5.221,8.464,5.856,7.079.322,7.719-2.273c-1.181,1.443-5.112,2.445-9.313.465a9.483,9.483,0,0,1-5.4-7.287c-.255-1.584,2.405-3.825,3.887-5.162s2.194-3.367,3.8-5.115.97-3.391,2.772-5.883c1.479-2.043.787-4.265,1.429-6a14.794,14.794,0,0,0,1.376-5.848c-.1-2.178.561-4.632.724-7.023s-1.693-7.111-2.892-10.047-3.372-4.779-6.154-6.328-6.767-.972-9.138-.132c-1.975.7-3.124,1.428-4.349,1.127-.631-.4-.662-1.919-.8-3.26a38.812,38.812,0,0,1-.155-4.574,23.13,23.13,0,0,0,2.929-5.788c2.357-7.313,6.962-8.117,7-16.107.023-5.352.933-9.218.156-14.081,7.212,2.747,13.487,5.6,17.884,11.145,4.57,5.758,15.445,8.877,22.426,8.743s16.282-3.1,16.334-9.348c-1.908,3.922-10.308,8.328-20.939,6.1a22.18,22.18,0,0,1-16.22-13.66c-1.437-3.465,3.4-10,6.051-13.848s3.17-8.847,5.886-13.7.372-8.24,3.125-14.883c2.258-5.449-.517-10.131.005-14.422s1.366-9.148-.034-14.051-1.23-10.842-2.152-16.37-7.7-15.262-12.015-21.294-10.257-9.049-17.427-11.069-15.922,1.449-20.863,4.642c-2.327,1.5-4.043,2.892-5.63,3.815-2.573.389-6.98-5.931-20.362-30.339-6.437-1.111-5.675,1.145-5.675,1.145a161.023,161.023,0,0,1,12.688,18.738c2.354,4.268,5.7,11.711,4.583,14.177a30.4,30.4,0,0,1-9.815,4.063c-10.109,2.468-16.07,9.338-19.468,14.266s-6.061,13.94-1.612,26.242,4.474,8.108,8.754,16.646a34,34,0,0,0,6.683,9.453c-.444,3.12-1.178,6.553-2.592,7.424-4.04.89-9.415-.9-17.57-3.4-9.79-3.006-20.675.78-25.319,10.092s-7.365,14.445-5.928,20.309,1.333,13.835-.1,20.64S635.295,960.365,634.892,966.693Zm80.965,7.782c.094-.2.2-.385.277-.587a35.073,35.073,0,0,1,4.18-7.174c.739,4.286.406,6.64-.147,6.916A12.039,12.039,0,0,1,715.858,974.474Zm-27.286-69.7c-1.578-.394-2.578-1.968-2.394-6.616a27.661,27.661,0,0,1,2,2.206,30.087,30.087,0,0,0,5.14,4.659A30.38,30.38,0,0,1,688.572,904.777Z" transform="translate(-631.738 -631.778)"/><path class="fb" d="M1195.323,636.468c-.3,4.662,3.866,5.073,4.755,8.675,1.351,5.471,6,4.7,7.9,9.675s5.239,7.015,8.826,8.471,5.69,3.79,7.537,9.241,4.232,9.341,8.411,9.332c-2.9-.735-6.829-4.575-7.256-11.043-.348-5.259,4.658-7.39,9.175-9.275,4.848-2.023,5.413-5.079,7.76-6.577a13.852,13.852,0,0,0,2.716-2.182c.009.1.015.2.026.306.468,4.094.781,2.811,1.47,5.74s1.71,3.673,2.432,5.194,2.519,2.961,3.125,4.6,2.573,2.557,3.292,3.63,2.346,2.216,4.458,3.641,3.925,2.782,4.906,4.881,4.087,3.847,6.236,4.314,5.216.237,5.688-1.674c-.87,1.063-3.767,1.8-6.862.342a6.989,6.989,0,0,1-3.976-5.369c-.188-1.167,1.772-2.818,2.864-3.8s1.616-2.481,2.8-3.769.715-2.5,2.043-4.334c1.089-1.506.579-3.143,1.052-4.42a10.9,10.9,0,0,0,1.014-4.309,51.452,51.452,0,0,1,.534-5.174c.12-1.761-1.248-5.239-2.131-7.4a9.4,9.4,0,0,0-4.534-4.663c-2.05-1.142-4.986-.716-6.733-.1-1.455.516-2.3,1.053-3.2.831-.465-.3-.488-1.414-.593-2.4a28.588,28.588,0,0,1-.115-3.37,17.036,17.036,0,0,0,2.159-4.265c1.737-5.388,5.13-5.98,5.156-11.868.017-3.943.687-6.792.115-10.375,5.313,2.024,9.937,4.13,13.177,8.212,3.367,4.243,11.379,6.541,16.523,6.442s12-2.282,12.034-6.888c-1.4,2.89-7.594,6.136-15.427,4.491a16.341,16.341,0,0,1-11.95-10.064c-1.059-2.553,2.507-7.37,4.458-10.2s2.335-6.519,4.336-10.091.274-6.071,2.3-10.966c1.664-4.015-.381-7.464,0-10.625s1.006-6.74-.025-10.353-.906-7.988-1.585-12.061-5.673-11.246-8.853-15.69-7.557-6.667-12.839-8.156-11.732,1.068-15.372,3.421c-1.715,1.109-2.979,2.131-4.148,2.811-1.9.287-5.143-4.37-15-22.354-4.743-.819-4.182.843-4.182.843a118.735,118.735,0,0,1,9.349,13.806c1.734,3.145,4.2,8.629,3.377,10.446a22.392,22.392,0,0,1-7.231,2.993c-7.448,1.818-11.84,6.881-14.344,10.511s-4.466,10.271-1.188,19.334,3.3,5.975,6.449,12.265a25.092,25.092,0,0,0,4.924,6.966c-.327,2.3-.868,4.828-1.909,5.47-2.977.655-6.937-.661-12.945-2.506-7.213-2.215-15.233.575-18.655,7.437s-5.427,10.643-4.368,14.964a36.9,36.9,0,0,1-.073,15.207C1192.156,629.649,1195.62,631.806,1195.323,636.468Zm59.654,5.734c.069-.144.145-.284.2-.433a25.79,25.79,0,0,1,3.08-5.286c.544,3.157.3,4.892-.109,5.1A8.858,8.858,0,0,1,1254.978,642.2Zm-20.1-51.352c-1.163-.291-1.9-1.45-1.764-4.875a20.383,20.383,0,0,1,1.471,1.625,22.167,22.167,0,0,0,3.787,3.433A22.425,22.425,0,0,1,1234.874,590.85Z" transform="translate(-879.107 -506.672)"/></g><path class="fc" d="M1180.1,1238.32c-15.187-24.453-75.934-26.77-94.714-28.314-18.434-5.483-23.675-26.453-12.53-39.436.384-.413.759-.821,1.121-1.222l.026-.029h0c10.284-11.361,12.033-17.586,11.2-34.217-.9-18.064-7.419-80.1-14.565-112.783v0c-4.351-23.656-6.885-24.755-11.346-28.272,0,0,.6-4.118-3.175-5.405s-16.9-7.122-20.506-9.524-14.243-2.059-19.22-4.892-7.379-.084-7.379-.084-2.059.858-9.61-2.917c-7.5-3.749-8.01-1.247-8.017-1.213-5.9-5.147-8.752-12.859-8.743-20.8a61.3,61.3,0,0,0,17.675-22.934c.39,13.166,3.3,23.122,6.2,22.636,3.112-.521.886-12.842,2.264-32.368,1.432-20.294,14.319-31.891,10.116-38.5a5.413,5.413,0,0,0-5.565-2.151,4.324,4.324,0,0,1,.482-8.232,3.965,3.965,0,0,0-3.966-3.966c-.038,0-.072.01-.109.011v-.022c.038,0,.072.011.11.011a3.966,3.966,0,1,0-.959-7.8c-.009-.053-.021-.106-.03-.159a8.636,8.636,0,0,1,1.909-11.611,3.954,3.954,0,0,1-3.124-7.258,3.956,3.956,0,0,1-3.966-6.81,3.95,3.95,0,0,0-6.992-2.536c-.03-.039-.062-.076-.091-.114a3.956,3.956,0,1,0-5.18-5.832l-.066-.067a3.956,3.956,0,1,0-5.863-4.965l-.078-.056a3.879,3.879,0,0,0,.362-3.554,3.439,3.439,0,0,0-3.749-4.866c-.031-.1-.064-.19-.1-.285a3.462,3.462,0,1,0-3.012-6.191l-.073-.114a3.467,3.467,0,1,0-4.454-5.248l-.02-.019a3.459,3.459,0,1,0-5.589-4.011l-.033-.018a3.429,3.429,0,0,0,.477-1.727,3.466,3.466,0,0,0-6.841-.8c-.041-.011-.081-.024-.122-.035a3.465,3.465,0,1,0-6.81-.9v.008c-.107,0-.213-.008-.32-.008s-.212.007-.32.008v-.008a3.471,3.471,0,0,0-6.943,0,3.435,3.435,0,0,0,.133.9c-.041.011-.082.024-.122.035a3.464,3.464,0,1,0-6.364,2.525l-.032.018a3.459,3.459,0,1,0-5.589,4.011l-.02.019a3.466,3.466,0,1,0-4.454,5.248l-.073.114a3.461,3.461,0,1,0-3.012,6.191c-.032.1-.065.189-.1.285a3.451,3.451,0,0,0-3.749,4.866,3.887,3.887,0,0,0,.465,3.705l-.093.067a3.962,3.962,0,1,0-5.794,4.921c-.034.033-.065.067-.1.1a3.955,3.955,0,1,0-5.134,5.773c-.045.058-.093.114-.138.172a5.168,5.168,0,0,1-7.117,5.229,3.953,3.953,0,0,1-3.123,7.257,3.944,3.944,0,0,1-1.776,7.674,3.958,3.958,0,0,0-.21,7.911c-.01.058-.023.115-.033.173a3.959,3.959,0,1,0-1.028,7.78c.045,0,.086-.012.13-.013v.026c-.044,0-.085-.013-.129-.013a11.605,11.605,0,0,1-3.54,11.641,3.979,3.979,0,0,0,.056.557,5.413,5.413,0,0,0-5.565,2.151c-4.2,6.607,8.684,18.2,10.116,38.5,1.378,19.526-.848,31.848,2.264,32.368,2.907.487,5.813-9.47,6.2-22.636a61.3,61.3,0,0,0,17.675,22.934c.012,11.6-6.061,22.7-18.82,26.049-15.7,4.118-57.916,9.009-66.152,35.264s-16.56,103.991-17.589,124.584,1.888,25.225,20.078,43.415a300.4,300.4,0,0,0,26.145,22.789c-13.09,6.98-30.488,7.391-46.4,8.7-18.781,1.545-79.528,3.861-94.714,28.314s-10.371,53.67,9.781,75.419c28.143,30.374,72.845,26,72.845,26h284.688s44.7,4.376,72.845-26C1190.473,1291.99,1195.289,1262.774,1180.1,1238.32Zm-173.009-390.2-.018-.064c.112-.008.224-.017.334-.034C1007.3,848.058,1007.194,848.082,1007.093,848.124Zm-2.585-7.225c-.021-.05-.045-.1-.066-.146a.34.34,0,1,1,.066.146Zm-3.118-7.263a4.107,4.107,0,0,0-.385.318c-.028-.047-.055-.1-.082-.143A3.779,3.779,0,0,0,1001.39,833.637Zm-91.879.228c-.04.068-.078.136-.119.2a3.976,3.976,0,0,0-.52-.433A3.879,3.879,0,0,0,909.511,833.865Zm-3.532,6.9c-.034.077-.071.152-.1.229a.42.42,0,1,1,.1-.229Zm-3.124,7.258a4.065,4.065,0,0,0,.446.045c-.009.032-.018.064-.028.1A3.888,3.888,0,0,0,902.855,848.026ZM891.179,1076a111.243,111.243,0,0,1,7.067,20.62c-4.054,4.183-1.48,10.36.193,14.222s2.9,7.915,4.054,18.469c-3.99,2.574-1.48,10.1-.708,19.692-2.96,1.866-5.6,4.633-4.054,13.127-2.826,2.493-2.859,9.6-2.53,14.323-17.934-19.154-27.757-33.285-27.757-33.285C864.984,1127.264,876.938,1097.893,891.179,1076Z" transform="translate(-642.599 -677.235)"/></g></g><g transform="translate(499.47 536.798)"><circle class="fd" cx="296.869" cy="296.869" r="296.869" transform="translate(0 0)"/><circle class="fe" cx="165.436" cy="165.436" r="165.436" transform="translate(62.907 296.869) rotate(-45)"/></g></g></svg>