<svg xmlns="http://www.w3.org/2000/svg" xmlns:xlink="http://www.w3.org/1999/xlink" width="36" height="36" viewBox="0 0 36 36">
  <defs>
    <clipPath id="clip-path">
      <rect id="Rectangle_183" data-name="Rectangle 183" width="36" height="36" transform="translate(207 1444)" fill="#fff" stroke="#707070" stroke-width="1"/>
    </clipPath>
    <clipPath id="clip-path-2">
      <path id="Polygon_2" data-name="Polygon 2" d="M19,0,38,34H0Z" transform="translate(261.908 1472.445) rotate(150)" fill="#fff" stroke="#707070" stroke-width="1"/>
    </clipPath>
    <clipPath id="clip-path-3">
      <path id="Polygon_3" data-name="Polygon 3" d="M14,0,28,24H0Z" transform="translate(200.72 1436.76) rotate(-30)" fill="#fff" stroke="#707070" stroke-width="1"/>
    </clipPath>
  </defs>
  <g id="contact" transform="translate(-207 -1444)" clip-path="url(#clip-path)">
    <g id="Group_1068" data-name="Group 1068">
      <g id="Mask_Group_5" data-name="Mask Group 5" transform="translate(-3.908 9)" clip-path="url(#clip-path-2)">
        <g id="Group_1067" data-name="Group 1067" transform="translate(219 1444)">
          <path id="Path_750" data-name="Path 750" d="M0,0H24V24H0Z" fill="none"/>
          <rect id="Rectangle_182" data-name="Rectangle 182" width="18" height="14" rx="2" transform="translate(3 5)" fill="none" stroke="#000" stroke-linecap="round" stroke-linejoin="round" stroke-width="1.5"/>
          <path id="Path_751" data-name="Path 751" d="M3,7l9,6,9-6" fill="none" stroke="#000" stroke-linecap="round" stroke-linejoin="round" stroke-width="1.5"/>
        </g>
      </g>
      <g id="Mask_Group_6" data-name="Mask Group 6" transform="matrix(1, -0.017, 0.017, 1, -28.009, 14.039)" clip-path="url(#clip-path-3)">
        <g id="Group_1066" data-name="Group 1066" transform="translate(213 1434)">
          <path id="Path_748" data-name="Path 748" d="M0,0H24V24H0Z" fill="none"/>
          <path id="Path_749" data-name="Path 749" d="M5,4H9l2,5L8.5,10.5a11,11,0,0,0,5,5L15,13l5,2v4a2,2,0,0,1-2,2A16,16,0,0,1,3,6,2,2,0,0,1,5,4" fill="none" stroke="#000" stroke-linecap="round" stroke-linejoin="round" stroke-width="1.5"/>
        </g>
      </g>
      <line id="Line_26" data-name="Line 26" y1="16" x2="26" transform="translate(211.592 1453.5)" fill="none" stroke="#000" stroke-width="1.5"/>
    </g>
  </g>
</svg>
