<svg xmlns="http://www.w3.org/2000/svg" width="99" height="99" viewBox="0 0 99 99">
  <g id="Group_983" data-name="Group 983" transform="translate(-182 -1124)">
    <g id="data-pkg-icon" transform="translate(182 1124)">
      <g id="Group_936" data-name="Group 936">
        <circle id="Ellipse_64" data-name="Ellipse 64" cx="49.5" cy="49.5" r="49.5" transform="translate(0)" fill="#132072"/>
      </g>
      <g id="Group_974" data-name="Group 974" transform="translate(29.951 36.227)">
        <path id="Path_692" data-name="Path 692" d="M0,0H52.133V52.133H0Z" fill="none"/>
        <path id="Path_693" data-name="Path 693" d="M3,20.413a19.55,19.55,0,0,1,19.55,0,19.55,19.55,0,0,1,19.55,0" transform="translate(3.517 20.858)" fill="none" stroke="#178bff" stroke-linecap="round" stroke-linejoin="round" stroke-width="2.5"/>
        <path id="Path_694" data-name="Path 694" d="M3,7.413a19.55,19.55,0,0,1,19.55,0,19.55,19.55,0,0,1,19.55,0" transform="translate(3.517 5.62)" fill="none" stroke="#178bff" stroke-linecap="round" stroke-linejoin="round" stroke-width="2.5"/>
        <line id="Line_9" data-name="Line 9" y2="28.273" transform="translate(6.786 13.075)" fill="none" stroke="#178bff" stroke-linecap="round" stroke-linejoin="round" stroke-width="2.5"/>
        <line id="Line_10" data-name="Line 10" y2="28.273" transform="translate(26.011 13.075)" fill="none" stroke="#178bff" stroke-linecap="round" stroke-linejoin="round" stroke-width="2.5"/>
        <line id="Line_11" data-name="Line 11" y2="28.273" transform="translate(45.237 13.075)" fill="none" stroke="#178bff" stroke-linecap="round" stroke-linejoin="round" stroke-width="2.5"/>
      </g>
    </g>
    <g id="Group_975" data-name="Group 975" transform="translate(-1245.549 -116.324)">
      <g id="Ellipse_70" data-name="Ellipse 70" transform="translate(1446.766 1262.266)" fill="none" stroke="#fff" stroke-linecap="round" stroke-width="1.5">
        <circle cx="10.108" cy="10.108" r="10.108" stroke="none"/>
        <circle cx="10.108" cy="10.108" r="9.358" fill="none"/>
      </g>
      <g id="Ellipse_71" data-name="Ellipse 71" transform="translate(1454.433 1269.933)" fill="none" stroke="#fff" stroke-linecap="round" stroke-width="1.5">
        <circle cx="2.265" cy="2.265" r="2.265" stroke="none"/>
        <circle cx="2.265" cy="2.265" r="1.515" fill="none"/>
      </g>
      <line id="Line_5" data-name="Line 5" y2="24.398" transform="translate(1456.699 1260)" fill="none" stroke="#fff" stroke-linecap="round" stroke-width="1.5"/>
      <line id="Line_6" data-name="Line 6" y2="24.398" transform="translate(1465.237 1263.485) rotate(45)" fill="none" stroke="#fff" stroke-linecap="round" stroke-width="1.5"/>
      <line id="Line_7" data-name="Line 7" y2="24.398" transform="translate(1468.898 1272.199) rotate(90)" fill="none" stroke="#fff" stroke-linecap="round" stroke-width="1.5"/>
      <line id="Line_8" data-name="Line 8" y2="24.398" transform="translate(1465.237 1280.737) rotate(135)" fill="none" stroke="#fff" stroke-linecap="round" stroke-width="1.5"/>
    </g>
  </g>
</svg>
