<svg id="Group_955" data-name="Group 955" xmlns="http://www.w3.org/2000/svg" width="88.005" height="88.002" viewBox="0 0 88.005 88.002">
  <path id="Path_671" data-name="Path 671" d="M65.665,555.247c0-.648.025-1.3-.01-1.945a.869.869,0,0,1,.379-.8c.837-.675,1.648-1.382,2.488-2.054.288-.23.339-.371.075-.688a36.6,36.6,0,0,1-8.149-18.044c-.086-.549-.169-1.1-.206-1.653-.023-.341-.14-.443-.475-.408-1.013.108-2.031.171-3.042.293a.991.991,0,0,1-.977-.325c-.884-.975-1.8-1.921-2.717-2.866-.233-.241-.275-.407-.013-.673.961-.979,1.9-1.978,2.837-2.982a.692.692,0,0,1,.636-.234c1.069.1,2.142.175,3.209.3.37.043.475-.052.51-.42a36.413,36.413,0,0,1,8.147-19.9c.468-.579.472-.574-.079-1.033-.684-.57-1.359-1.15-2.053-1.707a.872.872,0,0,1-.375-.8c.06-1.352.09-2.706.115-4.059.005-.289.058-.425.4-.429q2.058-.025,4.114-.11a.817.817,0,0,1,.745.357c.614.766,1.271,1.5,1.879,2.271.247.314.395.361.732.088a36.349,36.349,0,0,1,13.453-6.875,32.825,32.825,0,0,1,5.834-1.069c.368-.031.524-.137.482-.536-.1-.976-.16-1.957-.255-2.934a.731.731,0,0,1,.253-.681q1.492-1.378,2.95-2.791c.24-.233.388-.289.659-.023.979.961,1.984,1.9,2.985,2.834a.676.676,0,0,1,.268.622c-.111.957-.171,1.919-.3,2.873-.065.483.125.6.557.633a35.03,35.03,0,0,1,9.062,2.073,36.092,36.092,0,0,1,10.336,5.877c.419.339.6.273.9-.109.555-.719,1.163-1.4,1.739-2.1a.738.738,0,0,1,.654-.324c1.371.052,2.743.093,4.115.109.365,0,.465.129.47.482.017,1.335.056,2.67.108,4a.815.815,0,0,1-.334.757c-.727.574-1.417,1.2-2.146,1.768-.333.262-.367.439-.081.785a36.339,36.339,0,0,1,6.926,13.122,35.487,35.487,0,0,1,1.28,6.808c.028.324.086.447.458.4.993-.118,1.992-.176,2.988-.269a.694.694,0,0,1,.637.233c.934,1,1.873,2.006,2.834,2.985.265.27.225.422-.016.67-.955.985-1.894,1.986-2.829,2.991a.637.637,0,0,1-.581.233c-.921-.094-1.845-.16-2.766-.26-.716-.078-.723-.094-.8.627a35.809,35.809,0,0,1-2.655,10.165,36.3,36.3,0,0,1-5.625,9.215c-.268.321-.312.486.055.768.807.622,1.564,1.308,2.356,1.951a.734.734,0,0,1,.3.664c-.05,1.371-.093,2.743-.109,4.115,0,.348-.13.443-.453.45q-2.113.042-4.226.118a.585.585,0,0,1-.5-.289c-.7-.84-1.414-1.67-2.1-2.523-.216-.268-.351-.267-.615-.056a36.658,36.658,0,0,1-15.673,7.389,37.219,37.219,0,0,1-3.9.584c-.364.036-.422.175-.391.485.107,1.088.189,2.178.306,3.264a.714.714,0,0,1-.241.682c-1.007.933-2.008,1.871-2.986,2.833-.268.264-.424.232-.67-.008q-1.477-1.433-2.984-2.835a.639.639,0,0,1-.222-.585c.1-1.052.115-2.114.281-3.154.1-.626-.172-.7-.646-.745a34.845,34.845,0,0,1-7.739-1.678,36.359,36.359,0,0,1-11.346-6.2c-.337-.271-.505-.272-.779.076-.687.874-1.425,1.708-2.131,2.568a.674.674,0,0,1-.6.31c-1.371-.052-2.743-.091-4.115-.105-.377,0-.524-.1-.507-.5.03-.685.008-1.372.008-2.058Zm23.368-20.694h0c-.123.3.175.354.306.47a11.426,11.426,0,0,0,13.349,1.259,11.184,11.184,0,0,0,5.7-10.479,11,11,0,0,0-2.673-6.853c-.087-.105-.149-.377-.4-.193q-.053,0-.049-.051a.689.689,0,0,0-.673-.718l-.005-.005c.1-.313-.2-.378-.35-.5A11.509,11.509,0,0,0,88.12,533.788c.114.132.163.432.465.314v0c-.014.065-.03.138.049.165.031.01.078-.028.118-.045l.16.161c-.016.04-.055.088-.044.119C88.9,534.586,88.969,534.568,89.034,534.553ZM81.484,525.1c.234-.06.6.212.66-.357a14.323,14.323,0,0,1,3.336-7.854c.277-.33.276-.495-.064-.777q-5.865-4.866-11.7-9.771c-.393-.331-.558-.272-.855.1a31.084,31.084,0,0,0-6.913,16.69c-.054.526.1.61.564.646,2.29.177,4.578.387,6.866.592C76.075,524.611,78.768,524.857,81.484,525.1Zm30.64,0c.623-.051,1.177-.093,1.731-.142,4.521-.4,9.041-.812,13.563-1.2.488-.042.722-.153.576-.691a7.07,7.07,0,0,1-.119-.935,30.829,30.829,0,0,0-6.782-15.7c-.257-.318-.419-.286-.7-.048q-5.943,4.989-11.909,9.952c-.367.3-.346.481-.069.827A14.066,14.066,0,0,1,111.5,524.6C111.557,525.1,111.782,525.186,112.124,525.105Zm15.845,4.442c.055-.275-.019-.423-.358-.449-1.182-.088-2.361-.211-3.542-.316-4.022-.357-8.044-.708-12.065-1.075-.337-.031-.462.054-.5.392a14.178,14.178,0,0,1-3.1,7.428c-.3.373-.239.537.1.821q5.842,4.848,11.651,9.735c.383.323.559.293.863-.081a31.949,31.949,0,0,0,4.764-7.925A31.087,31.087,0,0,0,127.969,529.547ZM100.1,557.17c.256-.037.512-.08.769-.112a30.99,30.99,0,0,0,15.478-6.478c.375-.292.306-.456.045-.766q-4.87-5.788-9.709-11.6c-.3-.366-.483-.444-.9-.122a14.054,14.054,0,0,1-7.216,2.913c-.466.049-.407.29-.378.6q.378,4.122.741,8.246c.2,2.269.411,4.538.6,6.807C99.564,557.04,99.657,557.277,100.1,557.17Zm-18.985-29.4c-.475.038-1.067.08-1.657.133q-6.2.549-12.4,1.1c-1.119.1-1.117.087-.975,1.2a30.816,30.816,0,0,0,6.849,15.786c.271.334.436.428.817.107q5.765-4.855,11.566-9.668c.3-.247.37-.387.089-.728a14.276,14.276,0,0,1-3.185-7.163C82.1,527.713,82.088,527.714,81.113,527.77ZM98.176,511.23c-.086.313.061.394.368.432a14.568,14.568,0,0,1,7.4,3.051c.307.242.431.1.616-.124q5.028-6.019,10.071-12.026c.224-.266.212-.4-.054-.609a31.256,31.256,0,0,0-16.459-6.784c-.358-.039-.514.021-.544.443-.124,1.755-.294,3.508-.453,5.26Q98.653,506.048,98.176,511.23Zm-2.584-.049c-.054-.622-.1-1.194-.153-1.766q-.368-4.1-.737-8.191c-.168-1.863-.342-3.726-.5-5.59-.031-.363-.133-.506-.539-.453a35.615,35.615,0,0,0-5.117,1,31.492,31.492,0,0,0-10.958,5.6c-.348.274-.439.45-.1.812.546.579,1.032,1.214,1.544,1.826q4.14,4.949,8.275,9.9c.244.292.4.414.783.125a14.277,14.277,0,0,1,7.044-2.775C95.524,511.623,95.683,511.518,95.592,511.181Zm-.008,30.363c.068-.32-.01-.5-.4-.534A14,14,0,0,1,88,538.173c-.412-.312-.58-.225-.867.12q-4.8,5.77-9.642,11.513c-.265.314-.269.462.066.727a31.527,31.527,0,0,0,9.2,5.064,33.363,33.363,0,0,0,6.805,1.547c.49.063.712-.058.7-.591a12.535,12.535,0,0,1,.107-1.384q.311-3.459.624-6.917Q95.292,544.9,95.585,541.544Z" transform="translate(-52.84 -482.345)" fill="#00568f"/>
  <path id="Path_672" data-name="Path 672" d="M197.347,623.486a3.018,3.018,0,0,1,3.185,3.152,3.2,3.2,0,0,1-3.262,3.178,3.25,3.25,0,0,1-3.215-3.31A3.085,3.085,0,0,1,197.347,623.486Z" transform="translate(-153.196 -582.648)" fill="#00568f"/>
  <path id="Path_673" data-name="Path 673" d="M220.258,614.689l1.605-1.6c.246.1.321.005.277-.235h0c.158.1.207.023.216-.127l-.01.007c.244-.018.29.168.358.341.626,1.581,1.251,3.162,1.886,4.739.106.263.127.389-.234.385-1.426-.016-2.853,0-4.28-.009-.136,0-.316.065-.385-.128a5.349,5.349,0,0,1-.67-2.091h0c.041.006.067.073.127.013s-.007-.085-.014-.126l0,0c.041.006.067.073.126.014s-.007-.086-.013-.127l0,0c.041.006.067.073.127.013s-.007-.085-.013-.127l0,0c.041.006.067.073.127.013s-.007-.085-.014-.126l0,0c.041.006.067.072.126.013s-.007-.086-.013-.127l0,0c.041.006.067.073.127.013s-.007-.085-.013-.127l0,0c.041.006.067.072.127.013s-.007-.086-.014-.127l0,0c.041.006.067.073.127.013s-.007-.085-.013-.127l0,0c.041.006.067.073.127.014s-.007-.086-.013-.127l0,0c.041.006.067.073.127.013s-.007-.085-.014-.127l0,0c.065.015.137.031.165-.048C220.309,614.777,220.272,614.729,220.258,614.689Z" transform="translate(-170.937 -574.999)" fill="#00568f"/>
  <path id="Path_674" data-name="Path 674" d="M189.214,603.784c0,.684-.012,1.369.006,2.053a.485.485,0,0,1-.355.531c-1.548.667-1.545.675-2.751-.531-.707-.706-1.406-1.42-2.124-2.114-.253-.244-.236-.35.1-.479,1.566-.606,3.13-1.218,4.684-1.854.418-.171.46-.018.45.34C189.2,602.415,189.214,603.1,189.214,603.784Z" transform="translate(-145.92 -566.897)" fill="#00568f"/>
  <path id="Path_675" data-name="Path 675" d="M213.685,651.444c-1.755.7-3.436,1.358-5.113,2.03-.288.115-.4.06-.4-.264q.013-2.111,0-4.222a.466.466,0,0,1,.331-.495c1.534-.687,1.531-.695,2.72.493Z" transform="translate(-163.231 -600.087)" fill="#00568f"/>
  <path id="Path_676" data-name="Path 676" d="M175.017,637.513c.684,0,1.369.014,2.053-.006a.5.5,0,0,1,.535.359c.687,1.534.693,1.531-.491,2.713-.72.719-1.446,1.432-2.156,2.16-.233.239-.349.259-.483-.088-.6-1.566-1.218-3.129-1.853-4.682-.169-.414-.026-.47.342-.461C173.649,637.526,174.333,637.513,175.017,637.513Z" transform="translate(-137.915 -592.612)" fill="#00568f"/>
  <path id="Path_677" data-name="Path 677" d="M183.95,651.051l.1-.1.111-.111.111-.111.111-.111.111-.111.111-.111.111-.111.111-.111.111-.111.111-.111.111-.111.111-.111.111-.111.111-.111.111-.111.111-.111.111-.111.111-.111.111-.111.111-.111.111-.111.111-.111.111-.112.111-.111.111-.111.111-.111.111-.111.111-.111.111-.111.1-.1a5.817,5.817,0,0,1,1.935.7c.153.058.094.226.094.347,0,1.554,0,3.109,0,4.7a5.421,5.421,0,0,1-1.195-.46c-1.275-.544-2.549-1.088-3.816-1.649C184.164,651.306,183.876,651.356,183.95,651.051Z" transform="translate(-146.007 -599.879)" fill="#00568f"/>
  <path id="Path_678" data-name="Path 678" d="M221.684,642.69l-.112-.112-.111-.111-.111-.111-.111-.111-.111-.111-.111-.111-.111-.111-.111-.111-.111-.111-.111-.111-.111-.111-.111-.111-.111-.111-.111-.111-.111-.111-.111-.111-.111-.111-.111-.111-.111-.111-.111-.111-.111-.111-.111-.111-.111-.111-.111-.111-.111-.111-.1-.105c-.2-.448.153-.768.288-1.125.352-.939.375-.931,1.353-.931,1.2,0,2.406.017,3.609-.009.457-.01.475.117.309.49-.674,1.519-1.322,3.049-1.989,4.572-.057.13-.063.433-.354.215l-.1-.1-.111-.111Z" transform="translate(-170.735 -592.777)" fill="#00568f"/>
  <path id="Path_679" data-name="Path 679" d="M174.859,613.229l.112.112.111.111.111.111.111.111.111.111.111.111.111.111.111.111.111.111.111.111.111.111.111.111.111.111.111.111.111.111.111.111.111.111.111.111.111.111.111.111.111.111.111.111.111.111.111.111.1.1a4.807,4.807,0,0,1-.7,1.978c-.017.041-.13.058-.2.058-1.6,0-3.206,0-4.879,0,.765-1.775,1.5-3.485,2.242-5.192.034-.079.046-.243.217-.166l.1.1.111.111.111.111.111.111Z" transform="translate(-137.418 -574.958)" fill="#00568f"/>
  <path id="Path_680" data-name="Path 680" d="M212.377,604.859l-.112.112-.111.111-.111.111-.111.111-.111.111-.111.111-.111.111-.111.111-.111.111-.111.111-.111.111-.111.111-.112.111-.111.111-.111.111-.111.111-.1.1c-.156.166-.324.108-.506.043-1.621-.574-1.622-.572-1.622-2.282,0-1.016.01-2.032-.006-3.048,0-.318.038-.437.384-.285,1.569.69,3.146,1.361,4.716,2.049.115.05.389.035.247.313l-.1.1-.111.111-.111.111-.111.111-.111.111-.111.111-.111.111-.111.111-.111.111-.111.111-.111.111Z" transform="translate(-163.36 -566.743)" fill="#00568f"/>
</svg>
