<svg id="Group_1056" data-name="Group 1056" xmlns="http://www.w3.org/2000/svg" xmlns:xlink="http://www.w3.org/1999/xlink" width="105.397" height="92.202" viewBox="0 0 105.397 92.202">
  <defs>
    <clipPath id="clip-path">
      <rect id="Rectangle_171" data-name="Rectangle 171" width="105.397" height="92.202" fill="none"/>
    </clipPath>
    <clipPath id="clip-path-2">
      <rect id="Rectangle_149" data-name="Rectangle 149" width="105.398" height="92.202" fill="none"/>
    </clipPath>
    <clipPath id="clip-path-3">
      <path id="Path_721" data-name="Path 721" d="M86.578,374.932a8.549,8.549,0,0,0-1.269,8.328c1.879,4.681,7.534,4.231,9.453,9.421.942,2.546-.3,2.977.758,5.532,1.934,4.671,6.4,3.982,7.813,7.894,1.3,3.572-1.883,5.646-.217,9.335.961,2.126,2.251,1.955,4.494,4.729,2.661,3.291,2.757,5.9,3.69,7.539,1.6,2.823,7.038,5.175,24.708,2.141-12.672-2.52-15.969-5.717-16.386-8.335-.389-2.438,1.581-5.245-.109-8.173-1.028-1.781-2.114-1.364-3.142-2.915-2.656-4.007,2.856-9.413.532-12.973-1.715-2.627-5.619-1.066-7.344-4.023-1.222-2.1.261-3.7-.016-7.145-.459-5.707-5.2-9.561-5.827-10.058a18.278,18.278,0,0,0-10.707-3.753,8.264,8.264,0,0,0-6.432,2.458" transform="translate(-84.751 -372.474)" fill="none"/>
    </clipPath>
    <linearGradient id="linear-gradient" x1="0.145" y1="1.16" x2="0.146" y2="1.16" gradientUnits="objectBoundingBox">
      <stop offset="0" stop-color="#e38ddd"/>
      <stop offset="0.004" stop-color="#e38ddd"/>
      <stop offset="1" stop-color="#9571f6"/>
    </linearGradient>
    <clipPath id="clip-path-5">
      <rect id="Rectangle_151" data-name="Rectangle 151" width="49.482" height="58.071" fill="none"/>
    </clipPath>
    <clipPath id="clip-path-6">
      <path id="Path_723" data-name="Path 723" d="M506.939,92.55c-1.185.084-8.1.573-9.819,4.63-1.737,4.113,2.41,10.625,6.653,14.076,3.075,2.5,5.653,2.949,5.789,4.918.183,2.655-4.378,3.625-4.811,7.494-.229,2.045.82,3.793,1.852,5.512,2.339,3.9,4.62,3.751,4.955,5.909.458,2.954-3.668,4.161-4.584,8.58-.653,3.149.746,5.893,1.534,7.439,3.072,6.028,11.347,9.48,20.988,9.293-5.976-1.52-7.673-3.363-7.936-4.909-.429-2.531,3.014-4.091,2.554-6.976-.531-3.323-5.543-4.013-5.389-6.2.167-2.361,6.068-2.192,7.285-5.592,1.1-3.082-3.152-4.875-3.12-9.352.039-5.344,6.134-6.6,7.205-12.683.731-4.155-1.386-7.686-3.047-10.457-3.562-5.942-10.7-11.727-18.889-11.727q-.607,0-1.221.043" transform="translate(-496.715 -92.507)" fill="none"/>
    </clipPath>
    <linearGradient id="linear-gradient-2" x1="-0.234" y1="1.27" x2="-0.234" y2="1.27" gradientUnits="objectBoundingBox">
      <stop offset="0" stop-color="#aa80f9"/>
      <stop offset="0.996" stop-color="#6165d7"/>
      <stop offset="1" stop-color="#6165d7"/>
    </linearGradient>
    <clipPath id="clip-path-8">
      <rect id="Rectangle_154" data-name="Rectangle 154" width="39.393" height="66.74" fill="none"/>
    </clipPath>
    <clipPath id="clip-path-9">
      <path id="Path_726" data-name="Path 726" d="M187.072,1286.814c-.447.274-4.554,2.883-4.874,7.472-.291,4.185,2.726,7.742,5.233,9.425,2.953,1.982,5.922,1.851,6.226,3.577.222,1.263-1.269,1.886-1.435,3.906a6.146,6.146,0,0,0,1.5,4.111c3.7,4.842,14.483,3.6,20.749,1.8a36.577,36.577,0,0,0,6.838-2.725c-.629.205-7.728,2.438-10.9-.518a15.971,15.971,0,0,1-2.33-2.933c-1.22-1.948-1-2.493-1.778-3.489-1.827-2.33-4.375-1.042-5.878-2.788-1.65-1.918.641-4.381.279-9.858-.16-2.42-.4-6.088-2.99-8.169a7.41,7.41,0,0,0-4.707-1.5,11.712,11.712,0,0,0-5.932,1.688" transform="translate(-182.179 -1285.126)" fill="none"/>
    </clipPath>
    <linearGradient id="linear-gradient-3" x1="-0.142" y1="1.31" x2="-0.141" y2="1.31" xlink:href="#linear-gradient"/>
    <clipPath id="clip-path-11">
      <rect id="Rectangle_156" data-name="Rectangle 156" width="35.369" height="32.772" fill="none"/>
    </clipPath>
    <clipPath id="clip-path-12">
      <path id="Path_729" data-name="Path 729" d="M709.513,533.535V596.3l22.3,1.7V531.883Z" transform="translate(-709.513 -531.883)" fill="none"/>
    </clipPath>
    <linearGradient id="linear-gradient-4" x1="-0.988" y1="1.145" x2="-0.986" y2="1.145" gradientUnits="objectBoundingBox">
      <stop offset="0" stop-color="#ff9085"/>
      <stop offset="1" stop-color="#fb6fbb"/>
    </linearGradient>
    <clipPath id="clip-path-14">
      <path id="Path_732" data-name="Path 732" d="M765.031,630.374v57.274l20.58,1.425V628.991Z" transform="translate(-765.031 -628.991)" fill="none"/>
    </clipPath>
    <clipPath id="clip-path-15">
      <rect id="Rectangle_160" data-name="Rectangle 160" width="26.013" height="58.813" fill="none"/>
    </clipPath>
    <linearGradient id="linear-gradient-5" x1="-1.093" y1="1.163" x2="-1.093" y2="1.163" xlink:href="#linear-gradient-4"/>
    <clipPath id="clip-path-17">
      <rect id="Rectangle_163" data-name="Rectangle 163" width="23.904" height="53.48" fill="none"/>
    </clipPath>
    <clipPath id="clip-path-18">
      <path id="Path_734" data-name="Path 734" d="M1427.8,598l15.213-3.607V535.577l-15.213-3.694Z" transform="translate(-1427.799 -531.883)" fill="none"/>
    </clipPath>
    <linearGradient id="linear-gradient-6" x1="-0.285" y1="3.23" x2="-0.284" y2="3.23" xlink:href="#linear-gradient-4"/>
    <clipPath id="clip-path-20">
      <path id="Path_737" data-name="Path 737" d="M1427.8,689.073l15.213-3.273V632.352l-15.213-3.361Z" transform="translate(-1427.799 -628.991)" fill="none"/>
    </clipPath>
    <clipPath id="clip-path-21">
      <path id="Path_738" data-name="Path 738" d="M1715.45,0a19.224,19.224,0,0,0-19.224,19.224c0,8.215,11.508,23.205,16.717,29.569a3.241,3.241,0,0,0,5.015,0c5.208-6.363,16.717-21.354,16.717-29.569A19.224,19.224,0,0,0,1715.45,0Z" transform="translate(-1696.226 0.002)" fill="none"/>
    </clipPath>
    <linearGradient id="linear-gradient-7" x1="-0.83" y1="1.601" x2="-0.829" y2="1.601" gradientUnits="objectBoundingBox">
      <stop offset="0" stop-color="#fcb148"/>
      <stop offset="0.052" stop-color="#fdb946"/>
      <stop offset="0.143" stop-color="#fec144"/>
      <stop offset="0.318" stop-color="#ffc444"/>
      <stop offset="0.484" stop-color="#fdb946"/>
      <stop offset="0.773" stop-color="#f99c4c"/>
      <stop offset="0.866" stop-color="#f8924f"/>
      <stop offset="1" stop-color="#f8924f"/>
    </linearGradient>
    <clipPath id="clip-path-23">
      <rect id="Rectangle_168" data-name="Rectangle 168" width="24.857" height="49.748" fill="none"/>
    </clipPath>
    <clipPath id="clip-path-24">
      <path id="Path_740" data-name="Path 740" d="M1715.367,48.137c1.22-8.032,6.524-10.6,5.613-18.188-1.05-8.747-8.795-11.076-8.981-18.861a12.353,12.353,0,0,1,.462-3.619,19.229,19.229,0,0,0-16.233,18.992c0,8.215,11.509,23.205,16.717,29.569a3.232,3.232,0,0,0,3,1.15,21.981,21.981,0,0,1-.578-9.043" transform="translate(-1696.227 -7.469)" fill="none"/>
    </clipPath>
    <linearGradient id="linear-gradient-8" x1="-1.061" y1="1.702" x2="-1.06" y2="1.702" xlink:href="#linear-gradient-7"/>
    <clipPath id="clip-path-25">
      <path id="Path_741" data-name="Path 741" d="M2188.785,1749.91a3.929,3.929,0,1,0,3.929-3.929,3.929,3.929,0,0,0-3.929,3.929" transform="translate(-2188.785 -1745.981)" fill="none"/>
    </clipPath>
    <linearGradient id="linear-gradient-9" x1="-6.104" y1="3.628" x2="-6.101" y2="3.628" xlink:href="#linear-gradient-7"/>
  </defs>
  <g id="Group_1055" data-name="Group 1055" clip-path="url(#clip-path)">
    <g id="Group_1004" data-name="Group 1004" transform="translate(0 0)">
      <g id="Group_1003" data-name="Group 1003" clip-path="url(#clip-path-2)">
        <path id="Path_720" data-name="Path 720" d="M138.866,107.857a34.427,34.427,0,0,1-6.047,4.908c-15.66,10.456-33.561,7.443-39.1,6.412-8.929-1.662-16.467-2.834-22.943-8.685-14.716-13.3-14-41.03-2.755-58.21,1.333-2.037,12.561-18.68,30.5-21.025.439-.057.766-.09,1.053-.12,2.775-.294,19.973-1.845,34,9.9a41.833,41.833,0,0,1,8.233,9.342C152.761,67.3,152.8,93.5,138.866,107.857" transform="translate(-57.8 -29.949)" fill="#f4f7fa"/>
      </g>
    </g>
    <g id="Group_1006" data-name="Group 1006" transform="translate(2.632 11.566)">
      <g id="Group_1005" data-name="Group 1005" clip-path="url(#clip-path-3)">
        <rect id="Rectangle_150" data-name="Rectangle 150" width="78.897" height="76.39" transform="translate(-28.185 42.367) rotate(-56.871)" fill="url(#linear-gradient)"/>
      </g>
    </g>
    <g id="Group_1011" data-name="Group 1011" transform="translate(0 0)">
      <g id="Group_1010" data-name="Group 1010" clip-path="url(#clip-path-2)">
        <g id="Group_1009" data-name="Group 1009" transform="translate(4.407 11.566)" opacity="0.28" style="mix-blend-mode: soft-light;isolation: isolate">
          <g id="Group_1008" data-name="Group 1008">
            <g id="Group_1007" data-name="Group 1007" clip-path="url(#clip-path-5)">
              <path id="Path_722" data-name="Path 722" d="M158.724,384.363c2.293,5.291-1.445,8.635,1.24,12.808,2.18,3.389,5.619,2.7,6.559,5.852.9,3.024-2.011,4.485-1.215,7.94.657,2.847,2.868,2.862,5.076,6.544,2.223,3.707,1.324,5.929,2.466,8.193,1.226,2.431,4.7,4.71,14.062,4.843,1.4-.19,2.9-.42,4.5-.694-12.672-2.52-15.969-5.717-16.386-8.335-.389-2.438,1.581-5.244-.109-8.173-1.028-1.781-2.114-1.364-3.142-2.915-2.656-4.007,2.856-9.413.533-12.973-1.715-2.627-5.619-1.066-7.344-4.023-1.222-2.1.261-3.7-.016-7.145-.459-5.707-5.2-9.561-5.827-10.059-4.888-3.863-13.53-5.46-17.139-1.295l-.051.061a21.288,21.288,0,0,1,8.437,2.039c2.379,1.135,6.532,3.115,8.359,7.331" transform="translate(-141.928 -372.473)" fill="#fff"/>
            </g>
          </g>
        </g>
      </g>
    </g>
    <g id="Group_1013" data-name="Group 1013" transform="translate(15.424 2.873)">
      <g id="Group_1012" data-name="Group 1012" clip-path="url(#clip-path-6)">
        <rect id="Rectangle_153" data-name="Rectangle 153" width="43.331" height="71.832" transform="translate(-9.414 0.973) rotate(-6.867)" fill="url(#linear-gradient-2)"/>
      </g>
    </g>
    <g id="Group_1018" data-name="Group 1018" transform="translate(15.424 2.873)">
      <g id="Group_1017" data-name="Group 1017" clip-path="url(#clip-path-6)">
        <g id="Group_1016" data-name="Group 1016" transform="translate(-1.799 2.613)" opacity="0.7" style="mix-blend-mode: soft-light;isolation: isolate">
          <g id="Group_1015" data-name="Group 1015">
            <g id="Group_1014" data-name="Group 1014" clip-path="url(#clip-path-8)">
              <path id="Path_724" data-name="Path 724" d="M438.8,176.646q5.641,2.587,11.261,5.221c1.877.871,3.746,1.758,5.6,2.678.928.459,1.853.923,2.772,1.4s1.831.972,2.72,1.513c.444.271.882.556,1.3.871.211.155.414.325.612.5a5.778,5.778,0,0,1,.553.578,3.594,3.594,0,0,1,.438.682,3.416,3.416,0,0,1,.264.768,4.184,4.184,0,0,1,.023,1.605,5.117,5.117,0,0,1-.547,1.5,9.415,9.415,0,0,1-.879,1.309c-.645.824-1.365,1.572-2.054,2.339a18.962,18.962,0,0,0-1.909,2.408,9.183,9.183,0,0,0-.714,1.345,7.109,7.109,0,0,0-.426,1.452,6.181,6.181,0,0,0,.854,4.363,12.929,12.929,0,0,0,.893,1.246c.319.4.651.8.955,1.232.154.211.3.434.433.659a6.42,6.42,0,0,1,.359.707,5.383,5.383,0,0,1,.414,1.532,6.711,6.711,0,0,1,0,1.582,6.145,6.145,0,0,1-.387,1.535,7.57,7.57,0,0,1-.744,1.392c-.578.875-1.295,1.634-1.8,2.516a4.229,4.229,0,0,0-.516,1.405,4.321,4.321,0,0,0,.033,1.5,4.744,4.744,0,0,0,.525,1.41,7.256,7.256,0,0,0,.9,1.226c.679.766,1.472,1.445,2.116,2.278a5.3,5.3,0,0,1,.784,1.369,4.521,4.521,0,0,1,.274,1.557,4.353,4.353,0,0,1-.284,1.554,7.638,7.638,0,0,1-.758,1.373,3.676,3.676,0,0,0-.628,1.364,2.27,2.27,0,0,0,.251,1.444,4.511,4.511,0,0,0,.945,1.183,9.423,9.423,0,0,0,1.217.938,19.975,19.975,0,0,0,2.726,1.453c.942.422,1.9.8,2.877,1.147s1.955.672,2.945.971c1.978.6,3.979,1.131,5.988,1.623l0,.014c-2.013-.474-4.02-.984-6-1.57q-1.49-.436-2.957-.946c-.977-.341-1.946-.709-2.9-1.125a20.1,20.1,0,0,1-2.758-1.439,9.583,9.583,0,0,1-1.246-.943,4.592,4.592,0,0,1-.989-1.223,2.451,2.451,0,0,1-.276-1.556,2.6,2.6,0,0,1,.253-.759,7.325,7.325,0,0,1,.4-.679,7.461,7.461,0,0,0,.733-1.341,4.148,4.148,0,0,0,.263-1.483,4.309,4.309,0,0,0-.268-1.481,5.084,5.084,0,0,0-.759-1.309c-.628-.805-1.42-1.478-2.117-2.255a7.5,7.5,0,0,1-.94-1.263,5,5,0,0,1-.56-1.482,4.577,4.577,0,0,1-.042-1.588,4.494,4.494,0,0,1,.539-1.5,11.107,11.107,0,0,1,.884-1.3c.314-.412.629-.819.911-1.244a7.283,7.283,0,0,0,.714-1.34,5.857,5.857,0,0,0,.366-1.465,5.678,5.678,0,0,0-.392-2.964,11.452,11.452,0,0,0-1.711-2.53,13.218,13.218,0,0,1-.915-1.273,6.485,6.485,0,0,1-.9-4.571,7.418,7.418,0,0,1,.443-1.52,9.488,9.488,0,0,1,.736-1.394,19.252,19.252,0,0,1,1.937-2.453c.691-.772,1.407-1.519,2.036-2.326a9.106,9.106,0,0,0,.848-1.265,4.791,4.791,0,0,0,.511-1.4,3.871,3.871,0,0,0-.022-1.475,3.087,3.087,0,0,0-.632-1.318,5.472,5.472,0,0,0-.517-.544c-.189-.168-.382-.332-.587-.484-.406-.307-.836-.589-1.273-.859-.876-.538-1.783-1.032-2.7-1.514s-1.836-.948-2.76-1.41l-2.779-1.377c-.925-.462-1.861-.9-2.792-1.353q-5.593-2.686-11.168-5.414Z" transform="translate(-438.79 -176.646)" fill="#fff"/>
            </g>
          </g>
        </g>
      </g>
    </g>
    <g id="Group_1020" data-name="Group 1020" transform="translate(5.657 39.906)">
      <g id="Group_1019" data-name="Group 1019" clip-path="url(#clip-path-9)">
        <rect id="Rectangle_155" data-name="Rectangle 155" width="39.091" height="42.97" transform="translate(-4.05 34.609) rotate(-83.77)" fill="url(#linear-gradient-3)"/>
      </g>
    </g>
    <g id="Group_1025" data-name="Group 1025" transform="translate(5.657 39.906)">
      <g id="Group_1024" data-name="Group 1024" clip-path="url(#clip-path-9)">
        <g id="Group_1023" data-name="Group 1023" transform="translate(4.213 -1.693)" opacity="0.5" style="mix-blend-mode: soft-light;isolation: isolate">
          <g id="Group_1022" data-name="Group 1022">
            <g id="Group_1021" data-name="Group 1021" clip-path="url(#clip-path-11)">
              <path id="Path_727" data-name="Path 727" d="M348.855,1263.366a66.711,66.711,0,0,1-8.844-.583c-8.778-1.175-9.77-3.141-10.1-3.787a4.424,4.424,0,0,1-.317-2.742,5.872,5.872,0,0,0-.436-3.486,6.231,6.231,0,0,0-2.142-2.517,5.992,5.992,0,0,1-2.064-2.412,6.648,6.648,0,0,1-.272-4.269,12.747,12.747,0,0,0,.245-2.4c-.055-3.445-2.431-6.972-7.062-10.484l.067-.088c4.66,3.534,7.05,7.09,7.106,10.571a12.834,12.834,0,0,1-.247,2.423,6.558,6.558,0,0,0,.264,4.2,5.824,5.824,0,0,0,2.032,2.371,6.322,6.322,0,0,1,2.174,2.558,6.041,6.041,0,0,1,.445,3.544,4.336,4.336,0,0,0,.306,2.681c.319.633,1.292,2.56,10.012,3.727a67.407,67.407,0,0,0,13.2.443l.007.11q-2.192.14-4.379.14" transform="translate(-317.866 -1230.595)" fill="#fff"/>
            </g>
          </g>
        </g>
      </g>
    </g>
    <g id="Group_1027" data-name="Group 1027" transform="translate(22.032 16.516)">
      <g id="Group_1026" data-name="Group 1026" clip-path="url(#clip-path-12)">
        <rect id="Rectangle_157" data-name="Rectangle 157" width="22.304" height="66.113" transform="translate(0 0)" fill="url(#linear-gradient-4)"/>
      </g>
    </g>
    <g id="Group_1029" data-name="Group 1029" transform="translate(0 0)">
      <g id="Group_1028" data-name="Group 1028" clip-path="url(#clip-path-2)">
        <path id="Path_730" data-name="Path 730" d="M765.031,687.648V630.374l20.58-1.383v60.082Z" transform="translate(-741.275 -609.459)" fill="#fff"/>
      </g>
    </g>
    <g id="Group_1031" data-name="Group 1031" transform="translate(23.756 19.532)">
      <g id="Group_1030" data-name="Group 1030" clip-path="url(#clip-path-14)">
        <path id="Path_731" data-name="Path 731" d="M604.562,109.223l-22.132.65c-.074-12.152-.134-29.516-.015-31.128a3.315,3.315,0,0,1-.26,1.006l-2.932-2.536a7.349,7.349,0,0,0-.349,2.974c-.015.926-.025,2.256-.03,3.952-.009,2.839-.006,6.757.01,11.646.027,8.317.082,16.682.082,16.765l.017,2.527,7.593-.142v18.2l-14.319-.272-8.555-17.12-11.752.209L567.7,87.391l-2.5-3.05-17.352,31.692-7.467.133c.01-2.874.028-7.984.038-13.072.009-4.494.011-8.093.006-10.695-.01-5.189-.029-5.248-.135-5.577l-1.395,1.23a1.565,1.565,0,0,1-.07-.348c.073,1.08.04,16.838,0,28.489l-7.8.139c-1.416-8.377-4.727-27.949-4.838-28.49l-2.6,1.648-.006-.032c.141.757,3.068,18.159,5.023,29.8l.281,1.676,16.339-.116-10.151,18.539-19.921-.711v4.42l21.236.986,12.852-23.262,12.8-.09,5.987,12.088-15.818-.3v34.337l1.657.158V135.094l15.491.383,15.623,31.543,2.876-2.862-14.28-28.576,14.885.368V114.9l16.1-.3Z" transform="translate(-522.92 -94.349)" fill="#d8dee8"/>
      </g>
    </g>
    <g id="Group_1033" data-name="Group 1033" transform="translate(59.549 20.21)">
      <g id="Group_1032" data-name="Group 1032" clip-path="url(#clip-path-15)">
        <rect id="Rectangle_159" data-name="Rectangle 159" width="45.535" height="64.241" transform="matrix(0.932, -0.362, 0.362, 0.932, -19.842, 7.704)" fill="url(#linear-gradient-5)"/>
      </g>
    </g>
    <g id="Group_1035" data-name="Group 1035" transform="translate(0 0)">
      <g id="Group_1034" data-name="Group 1034" clip-path="url(#clip-path-2)">
        <rect id="Rectangle_161" data-name="Rectangle 161" width="23.904" height="53.48" transform="translate(59.549 22.856)" fill="#fff"/>
      </g>
    </g>
    <g id="Group_1037" data-name="Group 1037" transform="translate(59.549 22.856)">
      <g id="Group_1036" data-name="Group 1036" clip-path="url(#clip-path-17)">
        <path id="Path_733" data-name="Path 733" d="M92.911,372.38H73.138c-.069-9.942-.126-24.149-.014-25.458a2.289,2.289,0,0,1-.243.8l-2.761-2.311a5.128,5.128,0,0,0-.331,2.422c-.014.762-.023,1.857-.028,3.254-.009,2.339-.005,5.567.01,9.6.026,6.854.078,13.747.078,13.816l.016,2.082h7.087v14.762H63.394l-8.5-14.433H42.683l16.255-23.868-2.5-2.754L38.311,376.914H30.066c.012-2.576.031-7.156.043-11.717.01-4.028.012-7.253.007-9.586-.012-4.652-.033-4.706-.152-5.009l-1.572,1a1.208,1.208,0,0,1-.079-.319c.083.977.046,15.15,0,25.63h-8.98c-1.666-7.722-5.605-25.967-5.739-26.477l-3.135,1.33-.008-.03c.172.716,3.7,17.04,6.028,27.837l.334,1.546H35.447L24.034,397.878H0v4.205H25.542l14.277-20.964h13.42l6.025,10.228H43v29.971h1.758V393.583H60.582l14.932,25.345,2.644-2.522L64.712,393.583h14v-17h14.2Z" transform="translate(-59.549 -357.544)" fill="#d8dee8"/>
      </g>
    </g>
    <g id="Group_1039" data-name="Group 1039" transform="translate(44.336 16.516)">
      <g id="Group_1038" data-name="Group 1038" clip-path="url(#clip-path-18)">
        <rect id="Rectangle_164" data-name="Rectangle 164" width="66.204" height="15.613" transform="translate(-0.401 66.111) rotate(-89.653)" fill="url(#linear-gradient-6)"/>
      </g>
    </g>
    <g id="Group_1041" data-name="Group 1041" transform="translate(0 0)">
      <g id="Group_1040" data-name="Group 1040" clip-path="url(#clip-path-2)">
        <path id="Path_735" data-name="Path 735" d="M1427.8,689.073V628.991l15.213,3.361V685.8Z" transform="translate(-1383.462 -609.459)" fill="#d8dee8"/>
      </g>
    </g>
    <g id="Group_1043" data-name="Group 1043" transform="translate(44.336 19.532)">
      <g id="Group_1042" data-name="Group 1042" clip-path="url(#clip-path-20)">
        <path id="Path_736" data-name="Path 736" d="M639.212,273.466l-8.519-.851c-.032-9.4-.059-22.836-.006-24.057a3.526,3.526,0,0,1-.113.725l-1.3-2.6a8.807,8.807,0,0,0-.158,2.269c-.007.728-.011,1.776-.014,3.113,0,2.239,0,5.332,0,9.193.012,6.566.037,13.17.037,13.236l.008,1.994,3.29.216v13.738l-6.463.354-4.44-14.472-6.979-.439,9.132-23.341-1.32-3.129-10.505,26.3-5.389-.339c.008-2.942.021-8.172.029-13.38.007-4.6.008-8.283,0-10.947-.008-5.315-.022-5.381-.1-5.75l-1.078.853a2.435,2.435,0,0,1-.055-.382c.057,1.14.032,17.46,0,29.53l-6.495-.409c-1.271-9.466-4.366-32.493-4.473-33.156l-2.56.965-.006-.04c.142.942,3.012,21.9,4.848,35.345l.259,1.9,13.2.378-7.788,19.5-19.7,2.128v5.624l20.783-2.957,9.474-24.214,7.829.224,3.225,10.326-9.114.5v32.216l1.049-.314V293.737l8.748-.638,7.243,23.194,1.194-2.67-6.344-20.676,6.59-.481v-15.71l5.985.393Z" transform="translate(-608.796 -253.759)" fill="#a2a7ae"/>
      </g>
    </g>
    <g id="Group_1045" data-name="Group 1045" transform="translate(52.671 0)">
      <g id="Group_1044" data-name="Group 1044" clip-path="url(#clip-path-21)">
        <rect id="Rectangle_166" data-name="Rectangle 166" width="54.074" height="60.877" transform="matrix(0.932, -0.362, 0.362, 0.932, -16.996, 6.599)" fill="url(#linear-gradient-7)"/>
      </g>
    </g>
    <g id="Group_1052" data-name="Group 1052" transform="translate(0 0)">
      <g id="Group_1051" data-name="Group 1051" clip-path="url(#clip-path-2)">
        <path id="Path_739" data-name="Path 739" d="M1991.489,284.54a10.722,10.722,0,1,1-10.722-10.722,10.722,10.722,0,0,1,10.722,10.722" transform="translate(-1908.872 -265.315)" fill="#fff"/>
        <g id="Group_1050" data-name="Group 1050" transform="translate(52.672 0.232)" opacity="0.3" style="mix-blend-mode: multiply;isolation: isolate">
          <g id="Group_1049" data-name="Group 1049">
            <g id="Group_1048" data-name="Group 1048" clip-path="url(#clip-path-23)">
              <g id="Group_1047" data-name="Group 1047" transform="translate(0 0)">
                <g id="Group_1046" data-name="Group 1046" clip-path="url(#clip-path-24)">
                  <rect id="Rectangle_167" data-name="Rectangle 167" width="41.974" height="55.783" transform="translate(-16.827 6.533) rotate(-21.218)" fill="url(#linear-gradient-8)"/>
                </g>
              </g>
            </g>
          </g>
        </g>
      </g>
    </g>
    <g id="Group_1054" data-name="Group 1054" transform="translate(67.966 54.216)">
      <g id="Group_1053" data-name="Group 1053" clip-path="url(#clip-path-25)">
        <rect id="Rectangle_170" data-name="Rectangle 170" width="10.886" height="10.886" transform="translate(-3.61 5.48) rotate(-56.622)" fill="url(#linear-gradient-9)"/>
      </g>
    </g>
  </g>
</svg>
