<svg xmlns="http://www.w3.org/2000/svg" width="17.717" height="17.713" viewBox="0 0 17.717 17.713">
  <path id="Icon_awesome-instagram" data-name="Icon awesome-instagram" d="M8.855,6.553A4.541,4.541,0,1,0,13.4,11.094,4.534,4.534,0,0,0,8.855,6.553Zm0,7.494a2.952,2.952,0,1,1,2.952-2.952,2.958,2.958,0,0,1-2.952,2.952Zm5.786-7.68a1.059,1.059,0,1,1-1.059-1.059A1.057,1.057,0,0,1,14.642,6.367Zm3.008,1.075a5.242,5.242,0,0,0-1.431-3.711A5.276,5.276,0,0,0,12.507,2.3c-1.462-.083-5.846-.083-7.308,0A5.269,5.269,0,0,0,1.488,3.727,5.259,5.259,0,0,0,.057,7.438c-.083,1.462-.083,5.846,0,7.308a5.242,5.242,0,0,0,1.431,3.711A5.283,5.283,0,0,0,5.2,19.888c1.462.083,5.846.083,7.308,0a5.242,5.242,0,0,0,3.711-1.431,5.276,5.276,0,0,0,1.431-3.711c.083-1.462.083-5.842,0-7.3ZM15.76,16.315A2.989,2.989,0,0,1,14.076,18c-1.166.462-3.933.356-5.221.356S4.8,18.458,3.634,18A2.989,2.989,0,0,1,1.95,16.315c-.462-1.166-.356-3.933-.356-5.221s-.1-4.059.356-5.221A2.989,2.989,0,0,1,3.634,4.189c1.166-.462,3.933-.356,5.221-.356s4.059-.1,5.221.356A2.989,2.989,0,0,1,15.76,5.873c.462,1.166.356,3.933.356,5.221S16.223,15.153,15.76,16.315Z" transform="translate(0.005 -2.238)" fill="#fff"/>
</svg>
