<svg xmlns="http://www.w3.org/2000/svg" width="18.294" height="18.294" viewBox="0 0 18.294 18.294">
  <path id="Icon_awesome-linkedin" data-name="Icon awesome-linkedin" d="M16.987,2.25H1.3A1.312,1.312,0,0,0,0,3.569V19.225a1.312,1.312,0,0,0,1.3,1.319H16.987a1.316,1.316,0,0,0,1.307-1.319V3.569A1.316,1.316,0,0,0,16.987,2.25ZM5.529,17.93H2.818V9.2H5.533v8.73ZM4.173,8.008A1.572,1.572,0,1,1,5.745,6.436,1.573,1.573,0,0,1,4.173,8.008ZM15.693,17.93H12.981V13.684c0-1.013-.02-2.315-1.409-2.315-1.413,0-1.629,1.1-1.629,2.242v4.32H7.232V9.2h2.6v1.192H9.87a2.856,2.856,0,0,1,2.568-1.409c2.744,0,3.254,1.809,3.254,4.161Z" transform="translate(0 -2.25)" fill="#fff"/>
</svg>
