<svg xmlns="http://www.w3.org/2000/svg" width="99" height="99" viewBox="0 0 99 99"><defs><style>.a{fill:#723913;}.b,.c,.e{fill:none;}.b{stroke:#ffe644;}.b,.c{stroke-width:2px;}.c{stroke:#fff;}.d{stroke:none;}</style></defs><g transform="translate(-600 -1362)"><g transform="translate(600 1362)"><circle class="a" cx="49.5" cy="49.5" r="49.5" transform="translate(0)"/></g><path class="b" d="M3579.717,1513.21l-23.084,10.654-1.887-9.766s-8.1.222-10.987-1.443-.777-4.661-1-5.993-1.665-3.662-1.665-5.216.555-2.664-.666-3.551-3.219-1.665-2.775-3.219,5.105-6.1,5.105-8.324-2.219-4.994-.666-8.435,2.775-9.433,10.432-13.54,19.644-4.217,27.19,2.22,9.878,15.2,6.992,23.417-7.99,11.875-8.323,16.647S3579.717,1513.21,3579.717,1513.21Z" transform="translate(-2914.198 -80.679)"/><g class="c" transform="translate(636.903 1386.995)"><ellipse class="d" cx="15.231" cy="15.231" rx="15.231" ry="15.231"/><ellipse class="e" cx="15.231" cy="15.231" rx="14.231" ry="14.231"/></g><g class="c" transform="translate(641.02 1391.111)"><ellipse class="d" cx="11.115" cy="11.115" rx="11.115" ry="11.115"/><ellipse class="e" cx="11.115" cy="11.115" rx="10.115" ry="10.115"/></g><g class="c" transform="translate(645.136 1395.228)"><ellipse class="d" cx="6.998" cy="6.998" rx="6.998" ry="6.998"/><ellipse class="e" cx="6.998" cy="6.998" rx="5.998" ry="5.998"/></g><g class="c" transform="translate(649.429 1399.521)"><ellipse class="d" cx="2.705" cy="2.705" rx="2.705" ry="2.705"/><ellipse class="e" cx="2.705" cy="2.705" rx="1.705" ry="1.705"/></g></g></svg>