<svg xmlns="http://www.w3.org/2000/svg" width="99" height="99" viewBox="0 0 99 99"><defs><style>.a{fill:#fff843;}.b{fill:#00568f;}</style></defs><circle class="a" cx="49.5" cy="49.5" r="49.5"/><g transform="translate(-38.679 -468.189)"><path class="b" d="M63.309,541.856c0-.529.02-1.06-.008-1.587a.71.71,0,0,1,.309-.65c.683-.551,1.346-1.128,2.031-1.676.235-.188.277-.3.061-.562a29.878,29.878,0,0,1-6.652-14.73c-.07-.448-.138-.9-.168-1.349-.019-.279-.115-.362-.388-.333-.827.088-1.658.14-2.483.24a.809.809,0,0,1-.8-.265c-.722-.8-1.47-1.568-2.218-2.339-.19-.2-.224-.332-.011-.55.785-.8,1.553-1.614,2.316-2.435a.565.565,0,0,1,.519-.191c.873.083,1.748.143,2.619.243.3.035.388-.043.416-.342a29.724,29.724,0,0,1,6.651-16.242c.382-.473.386-.468-.064-.843-.558-.465-1.109-.939-1.676-1.393a.712.712,0,0,1-.306-.651c.049-1.1.073-2.209.094-3.313,0-.236.048-.347.323-.35q1.68-.02,3.359-.09a.667.667,0,0,1,.608.292c.5.626,1.038,1.224,1.534,1.854.2.256.322.294.6.072a29.673,29.673,0,0,1,10.982-5.612,26.8,26.8,0,0,1,4.762-.873c.3-.026.428-.111.393-.438-.084-.8-.131-1.6-.208-2.4a.6.6,0,0,1,.206-.556q1.218-1.124,2.408-2.278c.2-.19.317-.236.538-.019.8.784,1.62,1.548,2.437,2.313a.552.552,0,0,1,.219.508c-.091.781-.14,1.567-.244,2.345-.053.394.1.486.454.517a28.594,28.594,0,0,1,7.4,1.692,29.462,29.462,0,0,1,8.438,4.8c.342.277.493.223.734-.089.453-.587.95-1.139,1.419-1.713a.6.6,0,0,1,.534-.264c1.119.043,2.239.076,3.359.089.3,0,.38.105.383.393.014,1.09.046,2.179.088,3.268a.666.666,0,0,1-.273.618c-.594.469-1.157.976-1.752,1.443-.272.214-.3.358-.066.641a29.663,29.663,0,0,1,5.654,10.712,28.966,28.966,0,0,1,1.045,5.557c.023.264.07.364.374.328.81-.1,1.626-.144,2.439-.22a.567.567,0,0,1,.52.19c.762.82,1.529,1.637,2.314,2.436.217.221.183.344-.013.547-.78.8-1.546,1.621-2.309,2.441a.52.52,0,0,1-.474.19c-.752-.077-1.506-.131-2.258-.213-.584-.064-.59-.077-.653.512a29.232,29.232,0,0,1-2.167,8.3,29.632,29.632,0,0,1-4.592,7.522c-.219.262-.254.4.045.627.659.508,1.277,1.068,1.923,1.593a.6.6,0,0,1,.244.542c-.041,1.119-.076,2.239-.089,3.359,0,.284-.106.362-.369.367q-1.725.034-3.45.1a.477.477,0,0,1-.407-.236c-.572-.686-1.154-1.363-1.713-2.059-.176-.219-.287-.218-.5-.046a29.924,29.924,0,0,1-12.794,6.032,30.4,30.4,0,0,1-3.181.476c-.3.029-.344.143-.32.4.087.888.154,1.778.25,2.664a.583.583,0,0,1-.2.556c-.822.761-1.639,1.528-2.438,2.313-.219.215-.346.189-.547-.006q-1.206-1.17-2.436-2.314a.522.522,0,0,1-.181-.477c.078-.859.094-1.726.229-2.574.081-.511-.14-.571-.527-.608a28.446,28.446,0,0,1-6.317-1.37,29.682,29.682,0,0,1-9.262-5.062c-.275-.221-.413-.222-.636.062-.561.714-1.163,1.395-1.74,2.1a.55.55,0,0,1-.487.253c-1.119-.042-2.239-.074-3.359-.086-.308,0-.428-.084-.414-.409.025-.559.007-1.12.007-1.68Zm19.076-16.893h0c-.1.244.143.289.25.384a9.328,9.328,0,0,0,10.9,1.028,9.129,9.129,0,0,0,4.654-8.554,8.976,8.976,0,0,0-2.182-5.594c-.071-.086-.122-.308-.325-.158q-.043,0-.04-.042a.562.562,0,0,0-.55-.586l0,0c.078-.255-.164-.309-.286-.409A9.4,9.4,0,0,0,81.64,524.339c.093.108.133.352.379.256v0c-.012.053-.025.113.04.135.025.008.064-.023.1-.036l.131.131c-.013.033-.045.072-.036.1C82.272,524.99,82.332,524.975,82.385,524.963Zm-6.163-7.714c.191-.049.49.173.539-.291a11.692,11.692,0,0,1,2.723-6.411c.226-.269.225-.4-.052-.634q-4.788-3.972-9.549-7.976c-.321-.27-.456-.222-.7.079a25.374,25.374,0,0,0-5.643,13.624c-.044.43.08.5.461.528,1.87.144,3.737.316,5.6.483C71.807,516.847,74.005,517.048,76.223,517.249Zm25.012,0c.509-.042.961-.076,1.413-.116,3.69-.328,7.38-.663,11.071-.978.4-.034.589-.125.47-.564a5.772,5.772,0,0,1-.1-.763,25.166,25.166,0,0,0-5.536-12.815c-.21-.26-.342-.233-.574-.039q-4.852,4.073-9.722,8.124c-.3.248-.282.393-.056.675a11.482,11.482,0,0,1,2.524,6.067C100.771,517.246,100.955,517.317,101.234,517.251Zm12.935,3.626c.045-.225-.015-.346-.292-.366-.965-.072-1.927-.172-2.891-.258-3.283-.292-6.566-.578-9.849-.878-.275-.025-.377.044-.408.32a11.574,11.574,0,0,1-2.531,6.064c-.244.3-.195.439.084.67q4.769,3.957,9.511,7.947c.312.263.456.24.7-.066a26.08,26.08,0,0,0,3.889-6.469A25.378,25.378,0,0,0,114.169,520.877Zm-22.752,22.55c.209-.031.418-.065.628-.091a25.3,25.3,0,0,0,12.635-5.288c.306-.238.25-.372.037-.626q-3.975-4.724-7.926-9.469c-.249-.3-.394-.362-.735-.1a11.473,11.473,0,0,1-5.891,2.378c-.381.04-.332.237-.308.493q.308,3.365.6,6.731c.166,1.852.336,3.7.493,5.557C90.981,543.32,91.058,543.513,91.417,543.426Zm-15.5-24c-.388.031-.871.065-1.353.108q-5.061.449-10.122.9c-.914.08-.912.071-.8.978A25.156,25.156,0,0,0,69.24,534.3c.221.272.356.35.667.088q4.706-3.963,9.441-7.892c.242-.2.3-.316.072-.594a11.653,11.653,0,0,1-2.6-5.848C76.723,519.379,76.715,519.38,75.92,519.426Zm13.929-13.5c-.07.256.05.322.3.352a11.892,11.892,0,0,1,6.04,2.491c.251.2.352.079.5-.1q4.1-4.913,8.221-9.817c.183-.217.173-.323-.044-.5a25.515,25.515,0,0,0-13.436-5.538c-.292-.032-.419.017-.444.361-.1,1.433-.24,2.863-.369,4.294Q90.238,501.694,89.849,505.925Zm-2.109-.04c-.044-.507-.083-.975-.125-1.441q-.3-3.343-.6-6.686c-.137-1.521-.279-3.041-.407-4.563-.025-.3-.109-.413-.44-.369a29.074,29.074,0,0,0-4.177.814,25.709,25.709,0,0,0-8.945,4.573c-.284.224-.359.368-.08.663.445.473.842.991,1.26,1.49q3.379,4.04,6.755,8.081c.2.239.326.338.639.1a11.655,11.655,0,0,1,5.75-2.266C87.684,506.245,87.813,506.159,87.739,505.884Zm-.006,24.786c.055-.261-.008-.4-.327-.436a11.429,11.429,0,0,1-5.867-2.316c-.337-.255-.473-.183-.708.1q-3.922,4.71-7.871,9.4c-.216.256-.22.377.054.593a25.736,25.736,0,0,0,7.513,4.134,27.233,27.233,0,0,0,5.555,1.263c.4.051.581-.047.571-.482a10.234,10.234,0,0,1,.088-1.129q.254-2.823.509-5.647Q87.494,533.411,87.733,530.67Z"/><path class="b" d="M196.742,623.485a2.463,2.463,0,0,1,2.6,2.573,2.61,2.61,0,0,1-2.663,2.594,2.653,2.653,0,0,1-2.624-2.7A2.519,2.519,0,0,1,196.742,623.485Z" transform="translate(-107.861 -107.803)"/><path class="b" d="M220.03,614.328l1.31-1.31c.2.084.262,0,.226-.192h0c.129.085.169.019.176-.1l-.008.006c.2-.015.237.137.293.278.511,1.29,1.022,2.581,1.54,3.869.087.215.1.318-.191.315-1.164-.013-2.329,0-3.494-.008-.111,0-.258.053-.314-.1a4.366,4.366,0,0,1-.547-1.707h0c.034.005.055.059.1.011s-.006-.07-.011-.1h0c.034.005.055.059.1.011s-.006-.07-.011-.1l0,0c.034.005.055.059.1.011s-.006-.07-.011-.1l0,0c.034.005.055.059.1.011s-.006-.07-.011-.1v0c.034.005.055.059.1.011s-.006-.07-.011-.1l0,0c.034.005.055.059.1.011s-.006-.07-.011-.1l0,0c.034,0,.055.059.1.011s-.006-.07-.011-.1l0,0c.034.005.055.059.1.011s-.006-.07-.011-.1l0,0c.034.005.055.059.1.011s-.006-.07-.011-.1l0,0c.034.005.055.059.1.011s-.006-.07-.011-.1l0,0c.053.012.112.025.135-.039C220.072,614.4,220.042,614.361,220.03,614.328Z" transform="translate(-126.929 -99.583)"/><path class="b" d="M188.223,603.332c0,.559-.01,1.118,0,1.676a.4.4,0,0,1-.29.434c-1.264.545-1.261.551-2.246-.433-.577-.577-1.148-1.159-1.734-1.726-.206-.2-.192-.286.078-.391,1.278-.495,2.555-.994,3.823-1.513.341-.14.375-.015.368.278C188.212,602.214,188.223,602.773,188.223,603.332Z" transform="translate(-100.041 -90.874)"/><path class="b" d="M212.673,650.816c-1.433.568-2.8,1.109-4.173,1.657-.235.094-.325.049-.324-.216q.011-1.724,0-3.447a.38.38,0,0,1,.27-.4c1.252-.561,1.25-.567,2.22.4Z" transform="translate(-118.646 -126.546)"/><path class="b" d="M174.565,637.512c.559,0,1.117.011,1.676-.005a.406.406,0,0,1,.437.293c.561,1.252.565,1.25-.4,2.215-.588.587-1.18,1.169-1.76,1.763-.19.2-.285.212-.394-.072-.494-1.278-.994-2.554-1.513-3.822-.138-.338-.021-.384.279-.376C173.447,637.522,174.006,637.512,174.565,637.512Z" transform="translate(-91.437 -118.513)"/><path class="b" d="M183.948,650.441l.084-.085.091-.091.091-.091.091-.091.091-.091.091-.091.091-.091.091-.091.091-.091.091-.091.091-.091.091-.091.091-.091.091-.091.091-.091.091-.091.091-.091.091-.091.091-.091.091-.091.091-.091.091-.091.091-.091.091-.091.091-.091.091-.091.091-.091.091-.091.091-.091.084-.083a4.748,4.748,0,0,1,1.579.568c.125.047.077.185.077.283,0,1.269,0,2.538,0,3.835a4.428,4.428,0,0,1-.975-.375c-1.04-.444-2.081-.888-3.115-1.346C184.122,650.649,183.887,650.69,183.948,650.441Z" transform="translate(-100.134 -126.323)"/><path class="b" d="M221.142,641.78l-.091-.091-.091-.091-.091-.091-.091-.091-.091-.091-.091-.091-.091-.091-.091-.091-.091-.091-.091-.091-.091-.091-.091-.091-.091-.091-.091-.091-.091-.091-.091-.091-.091-.091-.091-.091-.091-.091-.091-.091-.091-.091-.091-.091-.091-.091-.091-.091-.091-.091-.085-.086c-.165-.366.125-.627.235-.918.288-.767.306-.76,1.1-.76.982,0,1.964.014,2.946-.007.373-.008.388.1.252.4-.551,1.24-1.079,2.489-1.624,3.732-.047.107-.051.354-.289.175l-.085-.085-.091-.091Z" transform="translate(-126.712 -118.69)"/><path class="b" d="M174.307,613.125l.091.091.091.091.091.091.091.091.091.091.091.091.091.091.091.091.091.091.091.091.091.091.091.091.091.091.091.091.091.091.091.091.091.091.091.091.091.091.091.091.091.091.091.091.091.091.091.091.084.085A3.923,3.923,0,0,1,176,617c-.014.033-.107.048-.163.048-1.308,0-2.617,0-3.983,0,.624-1.449,1.225-2.845,1.83-4.238.028-.065.037-.2.177-.136l.083.082.091.091.091.091.091.091Z" transform="translate(-90.903 -99.539)"/><path class="b" d="M211.638,604.169l-.091.091-.091.091-.091.091-.091.091-.091.091-.091.091-.091.091-.091.091-.091.091-.091.091-.091.091-.091.091-.091.091-.091.091-.091.091-.091.091-.085.085c-.127.136-.265.088-.413.035-1.323-.468-1.324-.467-1.324-1.863,0-.829.008-1.659,0-2.488,0-.259.031-.357.313-.233,1.281.563,2.568,1.111,3.85,1.672.094.041.317.029.2.255l-.084.084-.091.091-.091.091-.091.091-.091.091-.091.091-.091.091-.091.091-.091.091-.091.091-.091.091Z" transform="translate(-118.785 -90.71)"/></g></svg>