<svg id="Group_1075" data-name="Group 1075" xmlns="http://www.w3.org/2000/svg" width="35" height="35" viewBox="0 0 35 35">
  <path id="Path_762" data-name="Path 762" d="M0,0H35V35H0Z" fill="none"/>
  <path id="Path_763" data-name="Path 763" d="M14,3V8.833a1.458,1.458,0,0,0,1.458,1.458h5.833" transform="translate(6.417 1.375)" fill="none" stroke="#000" stroke-linecap="round" stroke-linejoin="round" stroke-width="1.5"/>
  <path id="Path_764" data-name="Path 764" d="M5,10.292V5.917A2.917,2.917,0,0,1,7.917,3H18.125l7.292,7.292V26.333A2.917,2.917,0,0,1,22.5,29.25H15.208" transform="translate(2.292 1.375)" fill="none" stroke="#000" stroke-linecap="round" stroke-linejoin="round" stroke-width="1.5"/>
  <circle id="Ellipse_86" data-name="Ellipse 86" cx="4.5" cy="4.5" r="4.5" transform="translate(4 16)" fill="none" stroke="#000" stroke-linecap="round" stroke-linejoin="round" stroke-width="1.5"/>
  <path id="Path_765" data-name="Path 765" d="M5.188,17,3,24.292,7.375,22.1l4.375,2.188L9.563,17" transform="translate(1.375 7.792)" fill="none" stroke="#000" stroke-linecap="round" stroke-linejoin="round" stroke-width="1.5"/>
</svg>
