<svg xmlns="http://www.w3.org/2000/svg" width="31.492" height="27.143" viewBox="0 0 31.492 27.143">
  <g id="Group_981" data-name="Group 981" transform="translate(-1760 -334)">
    <g id="Ellipse_67" data-name="Ellipse 67" transform="translate(1760 334)" fill="#fff" stroke="#fff" stroke-width="2.5">
      <circle cx="4.5" cy="4.5" r="4.5" stroke="none"/>
      <circle cx="4.5" cy="4.5" r="3.25" fill="none"/>
    </g>
    <g id="Subtraction_1" data-name="Subtraction 1" transform="translate(1764.823 346.677)" fill="#d7b58e">
      <path d="M 22.22654914855957 11.25 L 0.7732238173484802 11.25 C 0.9436500668525696 8.521697044372559 2.042181968688965 5.982469081878662 3.909677982330322 4.033669948577881 C 5.938987731933594 1.916170001029968 8.634588241577148 0.75 11.4998779296875 0.75 C 14.36517810821533 0.75 17.06077766418457 1.916170001029968 19.09009742736816 4.033689975738525 C 20.95760726928711 5.982288837432861 22.05615234375 8.521597862243652 22.22654914855957 11.25 Z" stroke="none"/>
      <path d="M 21.39934730529785 10.5 C 21.09534454345703 8.253402709960938 20.10959815979004 6.181386947631836 18.54861831665039 4.552629947662354 C 16.66208839416504 2.584110021591187 14.15879821777344 1.5 11.4998779296875 1.5 C 8.840968132019043 1.5 6.337677955627441 2.584110021591187 4.451178073883057 4.552589893341064 C 2.890216112136841 6.181512832641602 1.90447473526001 8.253474235534668 1.60044264793396 10.5 L 21.39934730529785 10.5 M 22.9998779296875 12 L -0.0001220703125 12 C -0.0001220703125 8.794269561767578 1.196407914161682 5.781070232391357 3.368167877197266 3.51476001739502 C 5.540287971496582 1.248250007629395 8.428097724914551 -8.881784197001252e-16 11.4998779296875 -8.881784197001252e-16 C 14.57165813446045 -8.881784197001252e-16 17.4594783782959 1.248250007629395 19.63158798217773 3.51476001739502 C 21.8035888671875 5.781070232391357 22.99975776672363 8.794280052185059 22.9998779296875 11.99927997589111 L 22.9998779296875 12 Z" stroke="none" fill="#fff"/>
    </g>
    <g id="Rectangle_136" data-name="Rectangle 136" transform="translate(1772.823 342.677)" fill="#d7b58e" stroke="#fff" stroke-width="1.5">
      <rect width="8" height="5" stroke="none"/>
      <rect x="0.75" y="0.75" width="6.5" height="3.5" fill="none"/>
    </g>
    <g id="Polygon_1" data-name="Polygon 1" transform="translate(1773.823 335.677)" fill="#d7b58e">
      <path d="M 4.917747497558594 7.25 L 1.082252502441406 7.25 L 3 2.136006593704224 L 4.917747497558594 7.25 Z" stroke="none"/>
      <path d="M 3 4.27199649810791 L 2.164498805999756 6.5 L 3.835501194000244 6.5 L 3 4.27199649810791 M 3 0 L 6 8 L 0 8 L 3 0 Z" stroke="none" fill="#fff"/>
    </g>
    <g id="Rectangle_137" data-name="Rectangle 137" transform="translate(1762.893 357.573)" fill="#d7b58e" stroke="#fff" stroke-width="1.5">
      <rect width="27.22" height="1.5" stroke="none"/>
      <rect x="0.75" y="0.75" width="25.72" fill="none"/>
    </g>
    <rect id="Rectangle_138" data-name="Rectangle 138" width="30.67" height="1.5" transform="translate(1760.823 359.643)" fill="#fff"/>
  </g>
</svg>
