<svg xmlns="http://www.w3.org/2000/svg" width="19.497" height="15.835" viewBox="0 0 19.497 15.835">
  <path id="Icon_awesome-twitter" data-name="Icon awesome-twitter" d="M17.493,7.327c.012.173.012.346.012.52A11.291,11.291,0,0,1,6.136,19.216,11.292,11.292,0,0,1,0,17.422a8.267,8.267,0,0,0,.965.049,8,8,0,0,0,4.961-1.707A4,4,0,0,1,2.19,12.993a5.039,5.039,0,0,0,.755.062A4.226,4.226,0,0,0,4,12.919,4,4,0,0,1,.792,9V8.948A4.024,4.024,0,0,0,2.6,9.455,4,4,0,0,1,1.361,4.111,11.358,11.358,0,0,0,9.6,8.292a4.511,4.511,0,0,1-.1-.915,4,4,0,0,1,6.915-2.734,7.867,7.867,0,0,0,2.536-.965A3.985,3.985,0,0,1,17.2,5.88a8.01,8.01,0,0,0,2.3-.619,8.589,8.589,0,0,1-2,2.066Z" transform="translate(0 -3.381)" fill="#fff"/>
</svg>
