<?xml version="1.0" ?><!DOCTYPE svg  PUBLIC '-//W3C//DTD SVG 1.1//EN'  'http://www.w3.org/Graphics/SVG/1.1/DTD/svg11.dtd'><svg enable-background="new 0 0 128 128" id="Layer_1" version="1.1" viewBox="0 0 128 128" xml:space="preserve" xmlns="http://www.w3.org/2000/svg" xmlns:xlink="http://www.w3.org/1999/xlink"><g><path d="M47.4,78.2L47.4,78.2c-6.9,0-11.1-3.8-11.8-4.4c-4.1-3.5-15-12.5-18.8-14.8c-5.2,0.3-8.6-5.3-8.8-5.6   c-0.3-0.6-0.4-1.3-0.1-1.9c0.3-0.6,0.8-1,1.5-1.1l73.8-12.5c0.8-0.1,1.5,0.2,2,0.8l2.9,4.1c0.3,0.4,0.4,1,0.3,1.5l-1.1,6.6   c1.7,9.2-6.5,14.8-6.8,15c-0.1,0-0.1,0.1-0.2,0.1c-0.8,0.4-19.9,9.8-28.8,11.7C50.1,78,48.7,78.2,47.4,78.2z M17.2,54.9   c0.3,0,0.6,0.1,0.9,0.2c4.4,2.2,18.5,14.2,20.1,15.6c0,0,0.1,0.1,0.1,0.1c0.1,0.1,3.4,3.3,9,3.3h0c1.1,0,2.1-0.1,3.2-0.4   c8-1.7,26-10.5,27.7-11.3c0.8-0.6,6.4-4.8,5-11.1c-0.1-0.3-0.1-0.5,0-0.8l1.1-6.1L82.7,42L13.6,53.8c1,0.8,2.1,1.4,3.3,1.2   C17,54.9,17.1,54.9,17.2,54.9z" fill="#2C3E50"/></g><path d="M42,93.3c0.1,5.2-3.7,9.8-9,10.6c-0.5,0.1-1.1,0.1-1.6,0.1c-5.2,0-9.7-3.9-10.4-9c-0.9-5.8,3.1-11.2,8.9-12  c0.5-0.1,1.1-0.1,1.6-0.1c2.8,0,5.5,1.2,7.4,3.1l3.9-1.7c-2.7-3.3-6.8-5.4-11.3-5.4c-0.7,0-1.5,0.1-2.2,0.2  c-7.9,1.2-13.4,8.6-12.2,16.6c1.1,7.1,7.3,12.4,14.4,12.4c0.7,0,1.5-0.1,2.2-0.2c7.8-1.2,13.3-8.4,12.3-16.2L42,93.3z" fill="#2C3E50"/><path d="M120.7,22.8c-0.6-1-1.8-1.3-2.7-0.7l-9.7,5.6c-0.4,0.2-0.7,0.6-0.9,1.1L95.7,63.9L30.6,91.6  c-1,0.4-1.5,1.6-1.1,2.6c0.3,0.8,1.1,1.2,1.8,1.2c0.3,0,0.5-0.1,0.8-0.2L56.4,85l16.1,16.9c1,1,2.3,1.6,3.7,1.6c0.3,0,0.5,0,0.8-0.1  l4.9-0.7c2.6-0.4,4.5-2.7,4.4-5.3l-1-24.7l12.8-5.4c0.5-0.2,0.9-0.7,1.1-1.2L111,30.7l9-5.2C121,24.9,121.3,23.7,120.7,22.8z   M82.3,97.6c0,0.6-0.4,1.1-1,1.2l-4.9,0.7c-0.4,0.1-0.7-0.1-1-0.3l-15-15.8l21-8.9L82.3,97.6z" fill="#3B97D3"/></svg>