<svg xmlns="http://www.w3.org/2000/svg" width="19.963" height="14.037" viewBox="0 0 19.963 14.037">
  <path id="Icon_awesome-youtube" data-name="Icon awesome-youtube" d="M20.6,6.7A2.508,2.508,0,0,0,18.831,4.92c-1.557-.42-7.8-.42-7.8-.42s-6.243,0-7.8.42A2.508,2.508,0,0,0,1.467,6.7a26.314,26.314,0,0,0-.417,4.836,26.314,26.314,0,0,0,.417,4.836,2.471,2.471,0,0,0,1.765,1.748c1.557.42,7.8.42,7.8.42s6.243,0,7.8-.42A2.471,2.471,0,0,0,20.6,16.369a26.314,26.314,0,0,0,.417-4.836A26.314,26.314,0,0,0,20.6,6.7ZM8.99,14.5V8.564l5.218,2.968L8.99,14.5Z" transform="translate(-1.05 -4.5)" fill="#fff"/>
</svg>
